<svg xmlns="http://www.w3.org/2000/svg" viewBox="0 0 159.48 155"><defs><style>.cls-1,.cls-9{fill:#f5f5f5;}.cls-2{fill:#e1e1e1;}.cls-3{fill:#375a64;}.cls-4{fill:#bbd2ff;}.cls-13,.cls-5,.cls-6{opacity:0.3;}.cls-13,.cls-7{fill:#fff;}.cls-8{fill:none;}.cls-12,.cls-9{opacity:0.2;}.cls-10{opacity:0.5;}.cls-11{fill:#1a2e35;}.cls-14{font-size:19.5px;font-family:Arial-Black, Arial;font-weight:800;}.cls-15{fill:#3335cf;letter-spacing:0em;}</style></defs><title>Asset 2</title><g id="Layer_2" data-name="Layer 2"><g id="Layer_1-2" data-name="Layer 1"><path class="cls-1" d="M102.46,77.73l-40.32-.38-12.23,0H46.59l-.86,0h-.3a1.71,1.71,0,0,0,.3,0l.86,0,3.32,0,12.22.07,40.34,0c15.74,0,30,0,40.31.09,5.16,0,9.34.09,12.22.14l3.32.08a5.86,5.86,0,0,1,1.16.09,6.16,6.16,0,0,1-1.16.07c-.76,0-1.88,0-3.32,0-2.89,0-7.06,0-12.22,0C132.46,78,118.2,77.89,102.46,77.73Z"/><path class="cls-1" d="M102.15,81.19,62.37,74.72l-12.06-1.9L47,72.32l-.85-.12a1.34,1.34,0,0,0-.3,0l.29.06.85.15,3.28.54,12.06,1.91L102.19,81c15.55,2.37,29.63,4.54,39.81,6.17,5.09.82,9.21,1.5,12.05,2,1.42.24,2.52.44,3.27.58a8.74,8.74,0,0,1,1.13.26,5.3,5.3,0,0,1-1.16-.1c-.75-.09-1.86-.24-3.29-.45-2.85-.41-7-1-12.08-1.83C131.73,86,117.67,83.72,102.15,81.19Z"/><path class="cls-1" d="M101.28,84.55,63.05,72.07,51.44,68.35l-3.16-1-.82-.25a1.62,1.62,0,0,0-.29-.07l.27.11.82.27,3.15,1L63,72.2l38.35,12.13c15,4.72,28.52,9,38.31,12.19,4.9,1.58,8.85,2.88,11.58,3.8l3.13,1.08a7.24,7.24,0,0,1,1.08.43,6.11,6.11,0,0,1-1.13-.27l-3.18-1c-2.75-.84-6.72-2.09-11.63-3.66C129.72,93.83,116.2,89.43,101.28,84.55Z"/><path class="cls-1" d="M99.88,87.73,64.15,69.57,53.29,64.12l-3-1.47-.77-.37a1.35,1.35,0,0,0-.27-.11l.25.14.76.4,2.94,1.51,10.86,5.46L100,87.53c14,7,26.71,13.27,35.86,17.9,4.58,2.31,8.28,4.2,10.82,5.53,1.27.66,2.26,1.18,2.92,1.54a4.81,4.81,0,0,1,1,.59,6.6,6.6,0,0,1-1.06-.45c-.69-.31-1.7-.79-3-1.42-2.58-1.25-6.3-3.09-10.89-5.39C126.46,101.24,113.83,94.83,99.88,87.73Z"/><path class="cls-1" d="M98,90.67,65.61,67.3l-9.85-7-2.69-1.89-.71-.49-.24-.15.22.18.69.51,2.66,1.94,9.84,7,32.6,23.08c12.73,9,24.24,17.17,32.54,23.13,4.15,3,7.5,5.41,9.8,7.1,1.15.85,2,1.51,2.63,2a7.22,7.22,0,0,1,.89.73,5.7,5.7,0,0,1-1-.6c-.62-.42-1.54-1-2.71-1.86-2.35-1.63-5.73-4-9.9-7C122.07,108.05,110.62,99.8,98,90.67Z"/><path class="cls-1" d="M95.64,93.28,67.4,65.3l-8.6-8.44-2.36-2.28L55.82,54l-.22-.19a1.41,1.41,0,0,0,.2.22l.59.61,2.32,2.31,8.6,8.44,28.5,27.73c11.14,10.82,21.2,20.63,28.45,27.77,3.62,3.57,6.54,6.48,8.54,8.5,1,1,1.77,1.8,2.29,2.34a5.76,5.76,0,0,1,.75.86,6.07,6.07,0,0,1-.87-.75c-.55-.5-1.36-1.26-2.39-2.24-2.06-2-5-4.83-8.65-8.39C116.65,114.09,106.66,104.21,95.64,93.28Z"/><path class="cls-1" d="M92.91,95.5,69.49,63.59,62.34,54c-.84-1.12-1.5-2-2-2.6l-.52-.67a2.17,2.17,0,0,0-.19-.23,2,2,0,0,0,.16.25l.49.69L62.24,54l7.14,9.64L93.1,95.37c9.27,12.36,17.65,23.57,23.66,31.72,3,4.08,5.42,7.39,7.08,9.69.82,1.15,1.46,2,1.88,2.66a6,6,0,0,1,.61,1,5.5,5.5,0,0,1-.74-.87c-.47-.58-1.14-1.45-2-2.58-1.72-2.25-4.19-5.53-7.21-9.59C110.33,119.23,102,108,92.91,95.5Z"/><path class="cls-1" d="M89.86,97.28l-18-35.07c-2.33-4.48-4.21-8.09-5.51-10.61l-1.52-2.87c-.18-.32-.31-.57-.41-.74a1.16,1.16,0,0,0-.15-.25l.12.26c.09.18.21.43.38.76.34.67.83,1.65,1.47,2.9l5.5,10.6c4.69,8.95,11.17,21.28,18.33,34.92s13.63,26,18.26,34.93c2.31,4.48,4.17,8.12,5.43,10.64.63,1.26,1.12,2.24,1.43,2.92a5.2,5.2,0,0,1,.45,1,6.24,6.24,0,0,1-.59-1c-.37-.65-.9-1.61-1.56-2.85-1.34-2.49-3.25-6.1-5.58-10.57C103.24,123.37,96.87,111,89.86,97.28Z"/><path class="cls-1" d="M86.55,98.58c-4.72-14.6-9-27.82-12.1-37.4L70.73,49.87l-1-3.07L69.41,46c-.06-.18-.1-.27-.1-.27a1.45,1.45,0,0,0,.07.28c.06.19.14.46.25.8l1,3.09,3.72,11.31L86.78,98.51c4.87,14.54,9.26,27.73,12.37,37.29,1.56,4.78,2.81,8.65,3.65,11.33.42,1.35.73,2.39.94,3.1a4.94,4.94,0,0,1,.27,1.1,6.92,6.92,0,0,1-.43-1.05c-.25-.69-.62-1.72-1.08-3.05-.91-2.66-2.21-6.52-3.79-11.3C95.55,126.39,91.26,113.18,86.55,98.58Z"/><path class="cls-1" d="M83.07,99.35,77.18,60.57c-.78-5-1.41-9-1.84-11.74-.23-1.38-.41-2.45-.53-3.19-.06-.35-.11-.63-.15-.83a1.18,1.18,0,0,0-.06-.28,2.08,2.08,0,0,0,0,.29c0,.2.06.47.11.83.11.74.27,1.82.48,3.2.43,2.78,1.06,6.79,1.83,11.74,1.61,9.92,3.82,23.6,6.26,38.73S88,128.11,89.5,138c.76,5,1.36,9,1.76,11.76.19,1.39.34,2.47.43,3.2a5.29,5.29,0,0,1,.09,1.13,5.6,5.6,0,0,1-.26-1.11c-.14-.72-.33-1.8-.57-3.18-.47-2.77-1.13-6.77-1.92-11.73C87.46,128.19,85.36,114.49,83.07,99.35Z"/><path class="cls-1" d="M79.52,99.58c.14-15.3.27-29.15.36-39.19,0-5,0-9.06.05-11.88,0-1.39,0-2.48,0-3.23,0-.36,0-.64,0-.84a.94.94,0,0,0,0-.29s0,.1,0,.29,0,.48,0,.84c0,.75,0,1.84,0,3.23,0,2.82,0,6.87-.06,11.88v39.2c0,15.29,0,29.15-.08,39.18,0,5-.08,9.07-.13,11.87,0,1.41,0,2.5-.08,3.23a5.57,5.57,0,0,1-.09,1.13,6.25,6.25,0,0,1-.08-1.13c0-.74,0-1.82,0-3.23,0-2.8,0-6.86,0-11.87C79.25,128.74,79.36,114.88,79.52,99.58Z"/><path class="cls-1" d="M76,99.28c2.59-15.1,4.93-28.76,6.63-38.66.82-4.95,1.49-8.95,2-11.73.22-1.38.39-2.45.51-3.19,0-.36.09-.63.12-.83l0-.29a1.49,1.49,0,0,0-.07.28c0,.2-.09.47-.15.83l-.56,3.18c-.46,2.78-1.13,6.78-2,11.73-1.6,9.92-3.82,23.6-6.26,38.72s-4.66,28.8-6.33,38.69c-.84,5-1.53,9-2,11.72-.26,1.38-.46,2.45-.61,3.17A5.11,5.11,0,0,1,67,154a5.87,5.87,0,0,1,.1-1.12c.1-.73.25-1.81.46-3.2.42-2.78,1.06-6.79,1.88-11.74C71,128,73.36,114.37,76,99.28Z"/><path class="cls-1" d="M72.5,98.44c5-14.51,9.53-27.65,12.82-37.17L89.14,50c.44-1.32.78-2.36,1-3.07l.25-.8c.06-.19.08-.28.08-.28a1,1,0,0,0-.11.26l-.29.8c-.25.71-.61,1.73-1.07,3.06-.91,2.67-2.22,6.52-3.83,11.27L72.73,98.51c-4.85,14.56-9.26,27.73-12.52,37.25-1.63,4.76-3,8.6-3.91,11.25-.47,1.33-.84,2.36-1.1,3.05a5.67,5.67,0,0,1-.45,1A5.23,5.23,0,0,1,55,150c.21-.71.54-1.75,1-3.09.86-2.68,2.15-6.54,3.75-11.31C63,126.08,67.49,112.94,72.5,98.44Z"/><path class="cls-1" d="M69.22,97.08,87.89,62.34,93.5,51.78c.64-1.24,1.15-2.21,1.5-2.88l.38-.75.12-.27a1.16,1.16,0,0,0-.15.25c-.1.18-.24.42-.41.74l-1.55,2.86c-1.33,2.5-3.25,6.1-5.61,10.55-4.7,8.94-11.18,21.28-18.35,34.91s-13.64,26-18.39,34.86c-2.38,4.45-4.32,8-5.68,10.52-.68,1.24-1.22,2.2-1.59,2.84a6.11,6.11,0,0,1-.6,1,5.07,5.07,0,0,1,.46-1c.32-.67.81-1.65,1.46-2.9,1.29-2.52,3.18-6.13,5.54-10.59C55.34,122.92,61.93,110.64,69.22,97.08Z"/><path class="cls-1" d="M66.2,95.24c9.39-12.29,17.88-23.42,24-31.48l7.23-9.58,2-2.61.5-.69.16-.24a1.47,1.47,0,0,0-.19.22l-.52.67-2,2.58-7.24,9.57L66.4,95.38C57.14,107.76,48.75,119,42.62,127c-3.06,4-5.56,7.29-7.3,9.53-.87,1.11-1.55,2-2,2.56a6.83,6.83,0,0,1-.75.86,5.76,5.76,0,0,1,.62-1c.43-.61,1.07-1.5,1.91-2.64,1.68-2.28,4.13-5.57,7.17-9.62C48.33,118.66,56.82,107.52,66.2,95.24Z"/><path class="cls-1" d="M63.52,93,92.29,65.5,101,57.13l2.34-2.29.6-.6a1.41,1.41,0,0,0,.2-.22l-.22.19-.63.58-2.38,2.26L92.2,65.41,63.69,93.13C52.56,104,42.48,113.75,35.13,120.79c-3.67,3.52-6.65,6.36-8.73,8.31-1,1-1.85,1.72-2.41,2.22a6.67,6.67,0,0,1-.88.74,5.89,5.89,0,0,1,.76-.85c.52-.54,1.3-1.32,2.31-2.32,2-2,5-4.88,8.63-8.42C42.12,113.39,52.28,103.68,63.52,93Z"/><path class="cls-1" d="M61.23,90.31,94.05,67.53l9.91-7c1.15-.83,2.06-1.47,2.68-1.91l.69-.51a1.64,1.64,0,0,0,.23-.18l-.25.15-.71.48-2.71,1.87-9.92,7L61.37,90.5c-12.72,9-24.25,17.16-32.63,23-4.19,2.92-7.6,5.27-10,6.88-1.19.81-2.11,1.43-2.74,1.84a6,6,0,0,1-1,.59,6.76,6.76,0,0,1,.89-.72c.61-.46,1.5-1.11,2.66-1.95,2.31-1.67,5.69-4.07,9.86-7C36.82,107.26,48.41,99.19,61.23,90.31Z"/><path class="cls-1" d="M59.39,87.34,95.47,69.83l10.91-5.36,3-1.48.77-.4c.17-.09.26-.13.25-.14a1.35,1.35,0,0,0-.27.11l-.78.37-3,1.43L95.41,69.71,59.5,87.55c-14,7-26.71,13.26-35.93,17.77-4.61,2.25-8.35,4.06-11,5.28-1.29.62-2.3,1.09-3,1.4a7.3,7.3,0,0,1-1.07.44,5,5,0,0,1,1-.58c.67-.36,1.66-.87,2.94-1.52,2.55-1.3,6.27-3.16,10.87-5.43C32.56,100.37,45.31,94.17,59.39,87.34Z"/><path class="cls-1" d="M58.06,84.13,96.53,72.35l11.63-3.63,3.16-1,.82-.28a1.08,1.08,0,0,0,.27-.1,1.45,1.45,0,0,0-.28.07l-.83.24-3.17,1L96.49,72.23,58.13,84.35c-15,4.74-28.52,9-38.36,12.05-4.92,1.52-8.9,2.74-11.66,3.55-1.38.41-2.46.72-3.19.92a7.39,7.39,0,0,1-1.13.27,5.72,5.72,0,0,1,1.08-.42c.72-.25,1.78-.61,3.14-1,2.74-.9,6.71-2.16,11.62-3.7C29.45,92.89,43,88.72,58.06,84.13Z"/><path class="cls-1" d="M57.26,80.75,97.16,75l12.08-1.8,3.28-.51.85-.15.29-.06-.3,0-.85.11-3.29.46-12.08,1.8L57.3,81c-15.55,2.4-29.63,4.54-39.84,6-5.1.75-9.23,1.33-12.09,1.72l-3.29.42a5.62,5.62,0,0,1-1.16.09A6,6,0,0,1,2.05,89c.75-.14,1.85-.32,3.28-.56,2.84-.46,7-1.1,12.06-1.87C27.59,85,41.69,83,57.26,80.75Z"/><path class="cls-1" d="M57,77.3l40.33.33,12.22,0h3.32l.87,0h.29l-.29,0-.87,0-3.32,0-12.22,0L57,77.53c-15.74,0-30,0-40.32,0-5.16,0-9.33-.07-12.22-.12-1.44,0-2.56,0-3.32-.08A8.11,8.11,0,0,1,0,77.2a5.53,5.53,0,0,1,1.16-.08c.76,0,1.88,0,3.32-.05,2.89,0,7.06,0,12.22,0C27,77.05,41.28,77.16,57,77.3Z"/><path class="cls-1" d="M57.33,73.84l39.78,6.42,12.07,1.89,3.29.49.85.11a1.06,1.06,0,0,0,.29,0,1.57,1.57,0,0,0-.28-.06l-.85-.15L109.2,82l-12.07-1.9L57.29,74.07c-15.55-2.35-29.64-4.51-39.82-6.13-5.09-.81-9.21-1.48-12-2-1.42-.25-2.53-.44-3.27-.59A5.37,5.37,0,0,1,1,65.13a7.56,7.56,0,0,1,1.15.1l3.3.45c2.85.41,7,1,12.08,1.81C27.74,69.07,41.8,71.33,57.33,73.84Z"/><path class="cls-1" d="M58.19,70.48,96.44,82.91l11.61,3.71,3.16,1,.83.25a1.43,1.43,0,0,0,.29.07l-.28-.1-.81-.28-3.15-1L96.48,82.78,58.11,70.7c-15-4.71-28.53-9-38.32-12.14C14.89,57,10.93,55.68,8.2,54.77c-1.36-.46-2.42-.82-3.13-1.08A5.23,5.23,0,0,1,4,53.26a5.78,5.78,0,0,1,1.13.28c.73.2,1.8.52,3.18.94,2.75.84,6.73,2.08,11.63,3.64C29.74,61.23,43.26,65.62,58.19,70.48Z"/><path class="cls-1" d="M59.59,67.29,95.35,85.41l10.86,5.44,3,1.46.77.37.27.12s-.08-.06-.25-.15l-.76-.4-2.94-1.5L95.41,85.3,59.48,67.5c-14-6.94-26.73-13.25-35.89-17.86-4.58-2.31-8.28-4.19-10.82-5.51-1.28-.66-2.26-1.18-2.93-1.54a6.64,6.64,0,0,1-1-.59,5.74,5.74,0,0,1,1.07.44l3,1.42c2.58,1.25,6.3,3.09,10.9,5.38C33,53.81,45.63,60.21,59.59,67.29Z"/><path class="cls-1" d="M61.48,64.36,93.89,87.69l9.85,7,2.7,1.89.7.48.25.16a1.24,1.24,0,0,0-.22-.18l-.69-.51-2.67-1.93-9.85-7-32.62-23c-12.74-9-24.27-17.14-32.57-23.09-4.16-3-7.51-5.39-9.81-7.09-1.15-.84-2-1.51-2.64-2a6.51,6.51,0,0,1-.88-.73,5.53,5.53,0,0,1,1,.6c.63.41,1.55,1,2.72,1.85,2.35,1.63,5.74,4,9.9,7C37.38,47,48.84,55.24,61.48,64.36Z"/><path class="cls-1" d="M63.82,61.74,92.1,89.69l8.61,8.43,2.36,2.27.62.59.22.19s-.06-.08-.19-.22l-.6-.61L100.8,98,92.19,89.6,63.65,61.91C52.5,51.1,42.42,41.31,35.17,34.17c-3.63-3.56-6.55-6.46-8.55-8.48-1-1-1.78-1.8-2.29-2.34a5.56,5.56,0,0,1-.76-.86,6.31,6.31,0,0,1,.87.74c.56.51,1.36,1.27,2.39,2.25,2.07,2,5,4.82,8.67,8.38C42.79,41,52.79,50.83,63.82,61.74Z"/><path class="cls-1" d="M66.55,59.52,90,91.4,97.17,101l2,2.61.52.67a1.24,1.24,0,0,0,.18.22,2.32,2.32,0,0,0-.15-.24c-.12-.16-.29-.39-.5-.69L97.27,101c-1.7-2.29-4.14-5.57-7.15-9.64C84,83.21,75.63,72,66.36,59.65S48.68,36.1,42.66,28c-3-4.07-5.43-7.38-7.09-9.67-.83-1.15-1.47-2.05-1.89-2.66a6.63,6.63,0,0,1-.61-1,6,6,0,0,1,.75.86c.46.59,1.14,1.46,2,2.58C37.54,20.35,40,23.63,43,27.69,49.1,35.8,57.4,47.07,66.55,59.52Z"/><path class="cls-1" d="M69.6,57.73C76.65,71.42,83,83.81,87.65,92.79l5.52,10.59,1.52,2.87c.18.32.31.57.41.74a1.16,1.16,0,0,0,.15.25l-.12-.26-.38-.76-1.47-2.89-5.52-10.6c-4.7-8.94-11.2-21.27-18.37-34.9S55.72,31.88,51.08,22.92c-2.32-4.47-4.18-8.11-5.44-10.63C45,11,44.52,10.05,44.2,9.38a5.5,5.5,0,0,1-.45-1,5.21,5.21,0,0,1,.6,1c.36.64.89,1.6,1.56,2.85,1.34,2.48,3.25,6.09,5.59,10.56C56.18,31.66,62.57,44,69.6,57.73Z"/><path class="cls-1" d="M72.9,56.43c4.75,14.6,9,27.81,12.15,37.38,1.58,4.77,2.85,8.63,3.74,11.31.45,1.32.8,2.35,1,3.07l.28.79a1,1,0,0,0,.11.27,2.61,2.61,0,0,0-.08-.28c0-.19-.14-.46-.24-.81-.23-.71-.57-1.75-1-3.08-.89-2.68-2.16-6.54-3.73-11.31L72.68,56.5C67.79,42,63.38,28.79,60.25,19.23c-1.56-4.78-2.81-8.65-3.66-11.34-.42-1.34-.74-2.38-.94-3.09a5.48,5.48,0,0,1-.28-1.1,5.29,5.29,0,0,1,.44,1c.25.69.62,1.72,1.08,3.05.92,2.66,2.22,6.52,3.81,11.29C63.87,28.63,68.18,41.84,72.9,56.43Z"/><path class="cls-1" d="M76.38,55.65l5.94,38.77c.79,5,1.42,9,1.86,11.74.23,1.38.41,2.45.53,3.19.07.36.12.63.15.83l.06.28a1.27,1.27,0,0,0,0-.29c0-.19-.07-.47-.12-.83-.11-.74-.27-1.81-.48-3.19L82.45,94.4c-1.61-9.91-3.84-23.59-6.31-38.71S71.45,26.9,69.91,17c-.78-5-1.38-9-1.78-11.75-.2-1.39-.34-2.47-.43-3.2A6,6,0,0,1,67.6.9,5.35,5.35,0,0,1,67.86,2c.14.73.33,1.8.57,3.18C68.91,8,69.58,12,70.37,16.91,72,26.82,74.07,40.52,76.38,55.65Z"/><path class="cls-1" d="M79.94,55.42c-.13,15.3-.24,29.15-.32,39.19,0,5,0,9.06,0,11.88,0,1.39,0,2.48,0,3.23,0,.36,0,.64,0,.84s0,.29,0,.29a1.64,1.64,0,0,0,0-.29c0-.2,0-.48,0-.84,0-.75,0-1.83,0-3.23,0-2.82,0-6.87,0-11.88,0-10,0-23.89,0-39.2s0-29.15,0-39.18c0-5,.07-9.07.12-11.87,0-1.41,0-2.5.08-3.23A6.25,6.25,0,0,1,80,0a5.25,5.25,0,0,1,.08,1.13c0,.73,0,1.82.06,3.23,0,2.8,0,6.86,0,11.87C80.17,26.26,80.07,40.12,79.94,55.42Z"/><path class="cls-1" d="M83.49,55.71c-2.57,15.1-4.89,28.77-6.58,38.68-.81,4.94-1.47,9-1.93,11.73-.22,1.37-.39,2.45-.5,3.19,0,.36-.09.63-.12.83a1,1,0,0,0,0,.29,2.52,2.52,0,0,0,.06-.28c0-.2.09-.48.16-.83.13-.74.31-1.81.55-3.19.46-2.78,1.12-6.78,1.94-11.72,1.59-9.92,3.79-23.61,6.22-38.73S87.87,26.87,89.53,17c.83-4.95,1.52-8.95,2-11.71.25-1.38.45-2.45.6-3.18A6.7,6.7,0,0,1,92.41,1a5,5,0,0,1-.1,1.13c-.09.73-.25,1.81-.46,3.2-.41,2.77-1,6.78-1.85,11.74C88.38,27,86.07,40.62,83.49,55.71Z"/><path class="cls-1" d="M87,56.55,74.19,93.73c-1.61,4.76-2.91,8.61-3.81,11.29-.44,1.33-.78,2.36-1,3.08l-.26.8a1.28,1.28,0,0,0-.07.28,1.75,1.75,0,0,0,.11-.27c.07-.19.16-.45.29-.79.24-.71.6-1.74,1.06-3.06.9-2.68,2.21-6.53,3.82-11.29,3.17-9.55,7.56-22.73,12.4-37.29S96,28.74,99.2,19.22c1.62-4.76,3-8.61,3.89-11.26.47-1.33.84-2.36,1.1-3a5.34,5.34,0,0,1,.44-1A5.71,5.71,0,0,1,104.35,5c-.21.71-.54,1.75-1,3.09-.86,2.68-2.14,6.54-3.74,11.31C96.45,28.9,92,42,87,56.55Z"/><path class="cls-1" d="M90.23,57.9,71.61,92.67,66,103.24l-1.5,2.88-.38.75a2.85,2.85,0,0,0-.12.27,1.16,1.16,0,0,0,.15-.25c.1-.18.24-.42.41-.74l1.55-2.86,5.6-10.56c4.68-9,11.15-21.29,18.29-34.93s13.61-26,18.35-34.89c2.37-4.45,4.31-8,5.67-10.52.68-1.24,1.21-2.2,1.58-2.84a6.67,6.67,0,0,1,.6-1,5.5,5.5,0,0,1-.45,1c-.33.67-.82,1.65-1.46,2.9-1.29,2.51-3.17,6.13-5.52,10.6C104.08,32.05,97.51,44.34,90.23,57.9Z"/><path class="cls-1" d="M93.25,59.74c-9.36,12.31-17.84,23.44-24,31.51l-7.22,9.59-1.94,2.62c-.22.29-.38.52-.5.69s-.17.23-.16.24.07-.07.19-.22l.52-.67,2-2.59,7.22-9.58L93.06,59.61C102.3,47.22,110.68,36,116.8,27.94c3.06-4,5.55-7.3,7.29-9.54.87-1.12,1.55-2,2-2.57a6.83,6.83,0,0,1,.75-.86,5.76,5.76,0,0,1-.62,1c-.43.61-1.07,1.5-1.91,2.65-1.67,2.28-4.11,5.57-7.16,9.62C111.09,36.31,102.63,47.45,93.25,59.74Z"/><path class="cls-1" d="M95.94,62,67.21,89.52l-8.67,8.37-2.34,2.3-.6.6a2.65,2.65,0,0,0-.2.22l.23-.19.62-.58L58.63,98c2-2,5-4.84,8.67-8.37L95.78,61.85C106.88,51,117,41.21,124.29,34.15c3.67-3.52,6.65-6.36,8.73-8.31,1-1,1.85-1.73,2.4-2.23a6.67,6.67,0,0,1,.88-.74,5.89,5.89,0,0,1-.76.85c-.52.54-1.3,1.32-2.31,2.33-2,2-5,4.88-8.61,8.42C117.32,41.56,107.17,51.29,95.94,62Z"/><path class="cls-1" d="M98.24,64.67,65.45,87.49l-9.9,7-2.68,1.92-.69.5-.23.18a1,1,0,0,0,.25-.15l.71-.48,2.71-1.87,9.9-7L98.1,64.48c12.7-9,24.22-17.19,32.6-23.05,4.19-2.93,7.59-5.29,10-6.9,1.18-.8,2.1-1.42,2.73-1.83a5.7,5.7,0,0,1,1-.6,6.32,6.32,0,0,1-.89.73c-.6.45-1.49,1.11-2.65,1.94-2.32,1.68-5.68,4.08-9.86,7C122.62,47.69,111,55.77,98.24,64.67Z"/><path class="cls-1" d="M100.08,67.63,64,85.19l-10.9,5.38-2.95,1.48-.77.39a1.16,1.16,0,0,0-.25.15l.27-.11.78-.37,3-1.44,10.9-5.36L100,67.43c14-7,26.69-13.3,35.91-17.82,4.6-2.25,8.34-4.07,10.93-5.3l3-1.4a5.44,5.44,0,0,1,1.07-.43,7.37,7.37,0,0,1-1,.58c-.67.35-1.66.87-2.94,1.52-2.55,1.3-6.26,3.16-10.86,5.44C126.89,54.57,114.16,60.79,100.08,67.63Z"/><path class="cls-1" d="M101.41,70.84,63,82.67,51.33,86.31l-3.16,1-.81.28-.28.1.29-.07.83-.24,3.17-1L63,82.79l38.34-12.17c15-4.76,28.51-9.05,38.35-12.1,4.91-1.52,8.89-2.74,11.65-3.56,1.38-.41,2.46-.72,3.19-.92a5.21,5.21,0,0,1,1.13-.27,5.72,5.72,0,0,1-1.08.42c-.71.25-1.77.61-3.14,1.05-2.74.9-6.7,2.17-11.61,3.71C130,62.05,116.43,66.24,101.41,70.84Z"/><path class="cls-1" d="M102.22,74.22,62.33,80,50.25,81.84,47,82.35l-.85.15a1.19,1.19,0,0,0-.29.06,2.28,2.28,0,0,0,.3,0l.85-.11L50.27,82l12.08-1.8L102.18,74c15.54-2.41,29.62-4.58,39.83-6.09,5.1-.75,9.23-1.34,12.09-1.73l3.29-.43a6.68,6.68,0,0,1,1.16-.09,5.53,5.53,0,0,1-1.13.25c-.75.14-1.85.33-3.28.56-2.84.47-7,1.12-12.06,1.89C131.88,69.91,117.79,72,102.22,74.22Z"/><polygon class="cls-2" points="113.52 26.57 119.41 19.38 117 18.45 118.89 13.21 113.51 19.41 116.28 20.22 113.52 26.57"/><polygon class="cls-2" points="132.38 88.11 137.96 95.55 139.43 93.44 144.07 96.52 139.34 89.82 137.9 92.31 132.38 88.11"/><polygon class="cls-2" points="31.36 25.35 37.3 42.73 41.36 39.66 48.21 48.28 43.39 32.8 39.16 36.6 31.36 25.35"/><polygon class="cls-2" points="56.25 27.95 56.21 34.65 57.98 34.08 59.3 37.87 59.5 31.96 57.59 32.76 56.25 27.95"/><polygon class="cls-2" points="26.13 47.89 30.37 53.08 31.37 51.51 34.81 53.59 31.19 48.91 30.23 50.74 26.13 47.89"/><ellipse class="cls-3" cx="27.6" cy="86.54" rx="11.34" ry="12.5" transform="translate(-22.78 10.96) rotate(-16)"/><ellipse class="cls-4" cx="30.33" cy="86.54" rx="10.17" ry="17" transform="translate(-26.94 14.92) rotate(-19.34)"/><ellipse class="cls-4" cx="54.46" cy="78.63" rx="11.86" ry="18.62" transform="translate(-22.96 22.46) rotate(-19.34)"/><path class="cls-4" d="M58.14,124.66C54,116,55.26,102.25,55.26,102.25a12,12,0,0,1,0-3.57c.35-1.05,5.36-2.48,5.36-2.48L48.69,60.93l-25,10,8,31.66s1.25,12.28,2.13,17.86,2.09,13.43,3.22,16.4,6.37,3.31,9.16,3.66,13.34-4.8,14.42-6.37S62.33,133.29,58.14,124.66Z"/><ellipse class="cls-5" cx="54.46" cy="78.63" rx="11.86" ry="18.62" transform="translate(-22.96 22.46) rotate(-19.34)"/><path class="cls-2" d="M48.1,63.22S60.39,56,66.74,48.71C71.9,42.82,79,32.91,79,32.91l32.63,68.51s-17-6.49-32.63-6.64c-14.93-.14-20.54,0-20.54,0Z"/><ellipse class="cls-2" cx="54.67" cy="78.55" rx="9.31" ry="16.76" transform="translate(-22.92 22.53) rotate(-19.34)"/><g class="cls-6"><path class="cls-7" d="M47.2,84.79c11.53-7,24-12.55,37.81-10.83a76.93,76.93,0,0,1-6.15-25c-8.76,12-20,22.93-34.42,26.59a43.24,43.24,0,0,0,1.16,5.28C46.18,82.44,47.2,84.79,47.2,84.79Z"/></g><path class="cls-8" d="M50.18,131.46l-.66.23Z"/><path class="cls-8" d="M49,131.88l-.66.24Z"/><path class="cls-8" d="M47.77,132.31l-.71.26Z"/><path class="cls-8" d="M51.4,131.07l-.67.21Z"/><path class="cls-8" d="M54.24,130.2l-1.13.33Z"/><path class="cls-8" d="M52.64,130.68l-.72.22Z"/><path class="cls-8" d="M43.74,133.91l-.74.32Z"/><path class="cls-8" d="M40.11,135.58l-.65.33Z"/><path class="cls-8" d="M46.57,132.76l-.87.34Z"/><path class="cls-8" d="M41.29,135l-.65.31Z"/><path class="cls-8" d="M38.94,136.17l-.68.36Z"/><path class="cls-8" d="M45.35,133.24l-1.15.47Z"/><path class="cls-8" d="M42.49,134.45l-.67.31Z"/><path class="cls-9" d="M38.94,136.17l.52-.26.65-.33.53-.26.65-.31.53-.25.67-.31.51-.22.74-.32.46-.2,1.15-.47.35-.14.87-.34.49-.19.71-.26.54-.19.66-.24.55-.19.66-.23.55-.18.67-.21.52-.17.72-.22.47-.15,1.13-.33h0c-.28-.73-2.76-5.82-5.51-13.41-3-8.16-1.1-19.68-1.75-20.23s-15.3,6-15.3,6h0s1.25,12.28,2.13,17.86,2.09,13.43,3.22,16.4l.12.27c.21-.12.42-.24.64-.35l.46-.26Z"/><g class="cls-6"><path d="M54.25,130.2h0l-1.13.33-.47.15-.72.22-.52.17-.67.21-.55.18-.66.23-.55.19-.66.24-.54.19-.71.26-.49.19-.87.34-.35.14-1.15.47-.46.2-.74.32-.51.22-.67.31-.53.25-.65.31-.53.26-.65.33-.52.26-.68.36-.46.26c-.22.11-.43.23-.64.35,1.35,2.71,6.34,3.05,9,3.39s13.34-4.8,14.42-6.37c.58-.84,1-1,.68-2.35-2.31-.57-4.43-1.08-7-1.62Z"/></g><path class="cls-1" d="M50.7,99.54a3,3,0,0,0-1.26.36c-.27.27-.62,12.91.63,15,.07.13-.09.09.63.54s4,1.87,5.07,1.2,3.44-2.81,3.26-3.71-1.09-1.58-2.16-3.66c-1-1.86-1.33-7.82-1.33-7.82C55.16,101.26,51.25,99.46,50.7,99.54Z"/><path class="cls-5" d="M59,112.94s0,0,0,0c-.18-.9-1.09-1.58-2.16-3.66-1-1.86-1.33-7.82-1.33-7.82a40.89,40.89,0,0,0-4.63-1.86c.05.32.77,4.22,1.41,7.07a14,14,0,0,0,2.06,4.79c.07,0,.11-.07.14-.06A24.7,24.7,0,0,1,59,112.94Z"/><path class="cls-10" d="M54.52,111.36s-.07,0-.13.06c-.66.43-3.32,3.07-4,3.77l.34.22c.72.45,4,1.87,5.07,1.2A10.67,10.67,0,0,0,59,113.35a.81.81,0,0,0,.08-.41A24.47,24.47,0,0,0,54.52,111.36Z"/><path class="cls-11" d="M60.41,131.79l-.24,0a5.62,5.62,0,0,1-.67-.11,24.68,24.68,0,0,1-2.44-.64c-.51-.15-1.07-.31-1.68-.43a4.89,4.89,0,0,0-2-.06A32.13,32.13,0,0,0,49.11,132a67.06,67.06,0,0,0-7.66,3.19c-1,.47-1.71.88-2.23,1.16l-.6.33-.22.1.2-.13.58-.36c.52-.3,1.27-.72,2.22-1.21a60.42,60.42,0,0,1,7.65-3.24,30.69,30.69,0,0,1,4.35-1.44,4.58,4.58,0,0,1,1-.06,7.3,7.3,0,0,1,1,.14c.61.13,1.18.29,1.68.45,1,.32,1.84.57,2.42.7l.67.14A.65.65,0,0,1,60.41,131.79Z"/><path class="cls-11" d="M54.56,111.41A4,4,0,0,1,54,112c-.39.33-.92.79-1.49,1.31s-1.08,1-1.45,1.36a5.19,5.19,0,0,1-.61.56,3.27,3.27,0,0,1,.52-.65c.35-.37.84-.88,1.42-1.4s1.13-1,1.53-1.28A3.6,3.6,0,0,1,54.56,111.41Z"/><path class="cls-11" d="M53.82,110.57a3.61,3.61,0,0,1-.24-.34,8.91,8.91,0,0,1-.51-1,18.46,18.46,0,0,1-1-3.56c-.3-1.42-.54-2.71-.66-3.65-.07-.47-.11-.85-.13-1.11a3.33,3.33,0,0,1,0-.42,1.52,1.52,0,0,1,.08.41l.18,1.1c.15.94.41,2.22.71,3.63a22.35,22.35,0,0,0,1,3.55C53.53,110.06,53.85,110.55,53.82,110.57Z"/><path class="cls-11" d="M58.73,112.79s-.93-.39-2.11-.78-2.17-.59-2.16-.64a2.44,2.44,0,0,1,.66.07,12.15,12.15,0,0,1,1.55.41,12.64,12.64,0,0,1,1.49.6A2.37,2.37,0,0,1,58.73,112.79Z"/><g class="cls-6"><path class="cls-7" d="M40.14,73.67a11.85,11.85,0,0,0,.49,6.19S28,83.87,22,86.54a8.38,8.38,0,0,1-1.12-5.45Z"/></g><path class="cls-11" d="M48.29,61.06l-.11.06-.34.14a7.84,7.84,0,0,0-1.23.68,9.71,9.71,0,0,0-3.27,3.92,17.54,17.54,0,0,0-1.58,7.45,28,28,0,0,0,6.11,17.41,17.48,17.48,0,0,0,5.89,4.83,9.66,9.66,0,0,0,5,1,8.23,8.23,0,0,0,1.39-.24l.35-.1.12,0-.12,0-.34.12a8.51,8.51,0,0,1-1.39.27,9.63,9.63,0,0,1-5.07-1,17.64,17.64,0,0,1-6-4.83,27.56,27.56,0,0,1-4.56-8.24,27,27,0,0,1-1.58-9.28,17.54,17.54,0,0,1,1.63-7.5,9.61,9.61,0,0,1,3.34-3.93,7.64,7.64,0,0,1,1.26-.65l.34-.13Z"/><path class="cls-11" d="M55.36,98.81H55l-.88-.09a20.82,20.82,0,0,1-2.87-.57,21.46,21.46,0,0,1-2.77-.94Q48,97,47.7,96.85c-.19-.09-.29-.15-.28-.16s.44.15,1.13.41,1.68.59,2.77.88,2.11.49,2.85.62A10.1,10.1,0,0,1,55.36,98.81Z"/><path class="cls-11" d="M46.08,96.51S42.88,98,38.9,99.64s-7.22,3-7.24,3,3.19-1.45,7.18-3.14S46.06,96.47,46.08,96.51Z"/><path class="cls-11" d="M79,32.91l-.06.1-.18.27-.74,1c-.64.9-1.58,2.2-2.76,3.78s-2.6,3.47-4.21,5.53c-.81,1-1.67,2.1-2.58,3.19-.46.55-.92,1.1-1.41,1.65s-1,1.1-1.51,1.66a64.7,64.7,0,0,1-6.4,5.61c-2.07,1.6-4,3-5.63,4.07s-3,2-3.93,2.54c-.47.29-.84.51-1.1.65l-.28.17-.1,0,.09-.07.28-.18,1.07-.68c.93-.6,2.27-1.46,3.9-2.58S57,57.22,59,55.61A64.58,64.58,0,0,0,65.42,50c.51-.55,1-1.08,1.5-1.64s1-1.1,1.41-1.65c.91-1.09,1.77-2.16,2.58-3.18,1.62-2.05,3-3.92,4.24-5.5L78,34.28l.76-1,.2-.26Z"/><path class="cls-11" d="M58.45,94.74H60l4.25,0h14a77,77,0,0,1,14,1.4c1.77.33,3.19.64,4.17.87.49.11.87.21,1.12.28l.29.07.1,0h-.1l-.3-.06L96.4,97c-1-.21-2.4-.51-4.17-.82a80.44,80.44,0,0,0-13.94-1.35l-14,0-4.25,0-1.16,0h-.4Z"/><path class="cls-5" d="M122,55.42,78.41,33.6l-2.63,3.7c-1.17,9,0,20.32,3.85,32,3.7,11.28,9.2,20.85,15.21,27.38l8.7,2.12Z"/><ellipse class="cls-4" cx="102.42" cy="61.53" rx="22.28" ry="45.33" transform="translate(-14.07 34.98) rotate(-18.16)"/><ellipse class="cls-2" cx="103.08" cy="61.66" rx="14.91" ry="37.33" transform="translate(-14.08 35.19) rotate(-18.16)"/><path class="cls-5" d="M121.11,56.22c-6.62-20.16-19-34.2-27.59-31.38a7.47,7.47,0,0,0-2.73,1.62,6.87,6.87,0,0,1,.68-.27c7.82-2.57,19.37,11.24,25.79,30.83s5.3,37.55-2.52,40.12a6.8,6.8,0,0,1-3.75.08,8.9,8.9,0,0,0,6.47.62C126.08,95,127.72,76.38,121.11,56.22Z"/><path class="cls-4" d="M86.6,58.83,107,54.42l3.7,11.27L92.17,75.5S86.93,63.93,86.6,58.83Z"/><path class="cls-12" d="M92.29,57.6c-.32.13-4.09,6.77-1.5,10.57a15.88,15.88,0,0,0,5.41,5.19l-3.78,2L88.48,65,86.6,58.83Z"/><path class="cls-4" d="M111.68,59.12c1,3.11.57,6.06-1,6.57S107,64.1,106,61s-.58-6.06,1-6.57S110.66,56,111.68,59.12Z"/><path class="cls-11" d="M111.68,59.12a1.23,1.23,0,0,1-.12-.27c-.06-.18-.17-.44-.32-.77a10.65,10.65,0,0,0-.62-1.17,7.66,7.66,0,0,0-1.06-1.39,3.56,3.56,0,0,0-1.75-1.07,1.58,1.58,0,0,0-1.1.17,2,2,0,0,0-.77.91,5.77,5.77,0,0,0-.42,2.61,11.32,11.32,0,0,0,.54,2.82,10.87,10.87,0,0,0,1.24,2.59,5.66,5.66,0,0,0,1.88,1.86,2,2,0,0,0,1.16.27,1.45,1.45,0,0,0,1-.51,3.51,3.51,0,0,0,.78-1.9,7.33,7.33,0,0,0,0-1.74,10.72,10.72,0,0,0-.19-1.31c-.08-.36-.14-.63-.2-.82a1,1,0,0,1-.06-.28s0,.09.1.27.14.46.23.81a10.61,10.61,0,0,1,.22,1.32,7.42,7.42,0,0,1,0,1.76,3.58,3.58,0,0,1-.79,2,1.65,1.65,0,0,1-1.08.56,2.15,2.15,0,0,1-1.25-.28,5.86,5.86,0,0,1-1.94-1.9A11.11,11.11,0,0,1,105.89,61a11.63,11.63,0,0,1-.54-2.86,6,6,0,0,1,.44-2.69,2.27,2.27,0,0,1,.84-1,1.65,1.65,0,0,1,1.2-.18,3.64,3.64,0,0,1,1.82,1.13,7.7,7.7,0,0,1,1,1.42,8.84,8.84,0,0,1,.6,1.19,7,7,0,0,1,.29.79Z"/><ellipse class="cls-5" cx="108.88" cy="60.04" rx="1.72" ry="3.4" transform="translate(-13.29 36.92) rotate(-18.16)"/><path class="cls-11" d="M91.44,26.18l-.2.09c-.13.07-.34.13-.6.26a7.42,7.42,0,0,0-2,1.52c-1.49,1.58-2.83,4.55-3.41,8.38a41.19,41.19,0,0,0-.45,6.32A62.74,62.74,0,0,0,85.29,50,87.44,87.44,0,0,0,89,66.27a87,87,0,0,0,6.65,15.3,63.59,63.59,0,0,0,3.92,6.13,41.91,41.91,0,0,0,4.11,4.83c2.73,2.75,5.58,4.35,7.71,4.73a7,7,0,0,0,2.48.06c.28,0,.49-.11.63-.14l.22-.05a8.49,8.49,0,0,1-.84.23,7.22,7.22,0,0,1-2.5,0,11.27,11.27,0,0,1-3.67-1.46,21.68,21.68,0,0,1-4.11-3.26,39.23,39.23,0,0,1-4.14-4.82,63.17,63.17,0,0,1-4-6.14A89.34,89.34,0,0,1,85.13,50a65.28,65.28,0,0,1-.46-7.29,41.29,41.29,0,0,1,.48-6.34,21.91,21.91,0,0,1,1.39-5.06A11.28,11.28,0,0,1,88.63,28a7.32,7.32,0,0,1,2-1.5A8.42,8.42,0,0,1,91.44,26.18Z"/><path class="cls-12" d="M90.42,70.56l16.73-7.08s1.29,2.2,2.95,2.29L92.42,75.4Z"/><path class="cls-13" d="M79.33,42.24s-.89,3.91,0,5.41h3.1V42.24Z"/><g class="cls-6"><path class="cls-7" d="M93.27,18a13.91,13.91,0,0,0-6.91,3.43C81.23,25.74,79.13,33.33,79.17,40c1-.23,2.5-.55,3.39,0a34.51,34.51,0,0,1,1.76-9.85,12.45,12.45,0,0,1,6.51-7.27,12.51,12.51,0,0,1,8-.14c5.9,1.69,10.44,6.12,14.52,10.81C107.16,24.48,99.87,18.7,93.27,18Z"/></g><path class="cls-7" d="M123.82,93.43s0,.09-.09.24-.16.37-.31.64a13.11,13.11,0,0,1-4.31,4.83,10.44,10.44,0,0,1-2,1.07,10.31,10.31,0,0,1-2.4.62A8.77,8.77,0,0,1,110,100a16.53,16.53,0,0,1-3.32-2c-.88-.67-1.56-1.27-2-1.68-.24-.21-.41-.38-.53-.49l-.17-.18.2.15.54.47c.47.4,1.16,1,2,1.63a16.63,16.63,0,0,0,3.32,2,8.78,8.78,0,0,0,4.59.8,10.1,10.1,0,0,0,2.36-.61,11,11,0,0,0,2-1,12.91,12.91,0,0,0,2.87-2.58,13.59,13.59,0,0,0,1.47-2.15c.16-.27.26-.49.34-.63S123.82,93.43,123.82,93.43Z"/><g class="cls-6"><path d="M97.88,81a113.56,113.56,0,0,1-10-34.6,44.86,44.86,0,0,1-.18-12,22.17,22.17,0,0,1,2.67-7.88c-7,3.64-7.78,20.94-1.61,39.73,6.42,19.59,18,33.4,25.8,30.83a7.68,7.68,0,0,0,.79-.32,16.42,16.42,0,0,1-10.54-5.1A37.2,37.2,0,0,1,97.88,81Z"/></g><polygon class="cls-4" points="124.97 55.98 145.46 52.3 142.3 47.81 153.53 43.08 135.63 45.24 138.88 50.16 124.97 55.98"/><polygon class="cls-4" points="123.08 42.78 136.08 32.38 131.03 30.2 135.55 21.98 124.97 30.87 129.35 32.94 123.08 42.78"/><polygon class="cls-4" points="129.88 67.05 142.94 77.43 143.28 73.53 151.96 77.09 140.72 68.04 140.37 72.17 129.88 67.05"/><text class="cls-14" transform="translate(66.13 124.13) scale(0.86 1)">AD<tspan class="cls-15" x="30.33" y="0">SHARE</tspan></text></g></g></svg>