<svg xmlns="http://www.w3.org/2000/svg" xmlns:xlink="http://www.w3.org/1999/xlink" viewBox="0 0 68.87 41.54"><defs><style>.cls-1{fill:none;}.cls-2{isolation:isolate;}.cls-3{fill:url(#linear-gradient);}.cls-176,.cls-4{opacity:0.92;}.cls-176,.cls-177,.cls-4{mix-blend-mode:multiply;}.cls-4{fill:url(#radial-gradient);}.cls-5{clip-path:url(#clip-path);}.cls-6,.cls-7{fill:#fff;}.cls-10,.cls-100,.cls-101,.cls-102,.cls-103,.cls-104,.cls-105,.cls-106,.cls-107,.cls-108,.cls-109,.cls-11,.cls-110,.cls-111,.cls-112,.cls-113,.cls-114,.cls-115,.cls-116,.cls-117,.cls-118,.cls-119,.cls-12,.cls-120,.cls-121,.cls-122,.cls-123,.cls-124,.cls-125,.cls-126,.cls-127,.cls-128,.cls-129,.cls-13,.cls-130,.cls-131,.cls-132,.cls-133,.cls-134,.cls-135,.cls-136,.cls-137,.cls-138,.cls-139,.cls-14,.cls-140,.cls-141,.cls-142,.cls-143,.cls-144,.cls-145,.cls-146,.cls-147,.cls-148,.cls-149,.cls-15,.cls-150,.cls-151,.cls-152,.cls-153,.cls-154,.cls-155,.cls-156,.cls-157,.cls-158,.cls-159,.cls-16,.cls-160,.cls-161,.cls-162,.cls-163,.cls-164,.cls-165,.cls-166,.cls-167,.cls-168,.cls-169,.cls-17,.cls-170,.cls-171,.cls-172,.cls-173,.cls-174,.cls-175,.cls-18,.cls-181,.cls-19,.cls-20,.cls-21,.cls-22,.cls-23,.cls-24,.cls-25,.cls-26,.cls-27,.cls-28,.cls-29,.cls-30,.cls-31,.cls-32,.cls-33,.cls-34,.cls-35,.cls-36,.cls-37,.cls-38,.cls-39,.cls-40,.cls-41,.cls-42,.cls-43,.cls-44,.cls-45,.cls-46,.cls-47,.cls-48,.cls-49,.cls-50,.cls-51,.cls-52,.cls-53,.cls-54,.cls-55,.cls-56,.cls-57,.cls-58,.cls-59,.cls-60,.cls-61,.cls-62,.cls-63,.cls-64,.cls-65,.cls-66,.cls-67,.cls-68,.cls-69,.cls-7,.cls-70,.cls-71,.cls-72,.cls-73,.cls-74,.cls-75,.cls-76,.cls-77,.cls-78,.cls-79,.cls-8,.cls-80,.cls-81,.cls-82,.cls-83,.cls-84,.cls-85,.cls-86,.cls-87,.cls-88,.cls-89,.cls-9,.cls-90,.cls-91,.cls-92,.cls-93,.cls-94,.cls-95,.cls-96,.cls-97,.cls-98,.cls-99{fill-rule:evenodd;}.cls-8{fill:#fefefe;}.cls-9{fill:#fdfdfd;}.cls-10{fill:#fcfcfc;}.cls-11{fill:#fbfbfb;}.cls-12{fill:#fafafa;}.cls-13{fill:#f9f9f9;}.cls-14{fill:#f8f8f8;}.cls-15{fill:#f7f7f7;}.cls-16{fill:#f6f6f6;}.cls-17{fill:#f5f5f5;}.cls-18{fill:#f4f4f4;}.cls-19{fill:#f3f3f3;}.cls-20{fill:#f2f2f2;}.cls-21{fill:#f1f1f1;}.cls-22{fill:#f0f0f0;}.cls-23{fill:#efefef;}.cls-24{fill:#eee;}.cls-25{fill:#ededed;}.cls-26{fill:#ececec;}.cls-27{fill:#ebebeb;}.cls-28{fill:#eaeaea;}.cls-29{fill:#e9e9e9;}.cls-30{fill:#e8e8e8;}.cls-31{fill:#e7e7e7;}.cls-32{fill:#e6e6e6;}.cls-33{fill:#e5e5e5;}.cls-34{fill:#e4e4e4;}.cls-35{fill:#e3e3e3;}.cls-36{fill:#e2e2e2;}.cls-37{fill:#e1e1e1;}.cls-38{fill:#e0e0e0;}.cls-39{fill:#dfdfdf;}.cls-40{fill:#dedede;}.cls-41{fill:#ddd;}.cls-42{fill:#dcdcdc;}.cls-43{fill:#dbdbdb;}.cls-44{fill:#dadada;}.cls-45{fill:#d9d9d9;}.cls-46{fill:#d8d8d8;}.cls-47{fill:#d7d7d7;}.cls-48{fill:#d6d6d6;}.cls-49{fill:#d5d5d5;}.cls-50{fill:#d4d4d4;}.cls-51{fill:#d3d3d3;}.cls-52{fill:#d2d2d2;}.cls-53{fill:#d1d1d1;}.cls-54{fill:#d0d0d0;}.cls-55{fill:#cfcfcf;}.cls-56{fill:#cecece;}.cls-57{fill:#cdcdcd;}.cls-58{fill:#ccc;}.cls-59{fill:#cbcbcb;}.cls-60{fill:#cacaca;}.cls-61{fill:#c9c9c9;}.cls-62{fill:#c8c8c8;}.cls-63{fill:#c7c7c7;}.cls-64{fill:#c6c6c6;}.cls-65{fill:#c5c5c5;}.cls-66{fill:#c4c4c4;}.cls-67{fill:#c3c3c3;}.cls-68{fill:#c2c2c2;}.cls-69{fill:#c1c1c1;}.cls-70{fill:silver;}.cls-71{fill:#bfbfbf;}.cls-72{fill:#bebebe;}.cls-73{fill:#bdbdbd;}.cls-74{fill:#bcbcbc;}.cls-75{fill:#bababa;}.cls-76{fill:#b9b9b9;}.cls-77{fill:#b8b8b8;}.cls-78{fill:#b7b7b7;}.cls-79{fill:#b6b6b6;}.cls-80{fill:#b5b5b5;}.cls-81{fill:#b4b4b4;}.cls-82{fill:#b3b3b3;}.cls-83{fill:#b1b1b1;}.cls-84{fill:#b0b0b0;}.cls-85{fill:#afafaf;}.cls-86{fill:#aeaeae;}.cls-87{fill:#adadad;}.cls-88{fill:#acacac;}.cls-89{fill:#aaa;}.cls-90{fill:#a9a9a9;}.cls-91{fill:#a8a8a8;}.cls-92{fill:#a7a7a7;}.cls-93{fill:#a5a5a5;}.cls-94{fill:#a4a4a4;}.cls-95{fill:#a3a3a3;}.cls-96{fill:#a2a2a2;}.cls-97{fill:#a0a0a0;}.cls-98{fill:#9f9f9f;}.cls-99{fill:#9e9e9e;}.cls-100{fill:#9d9d9d;}.cls-101{fill:#9b9b9b;}.cls-102{fill:#9a9a9a;}.cls-103{fill:#999;}.cls-104{fill:#979797;}.cls-105{fill:#969696;}.cls-106{fill:#959595;}.cls-107{fill:#939393;}.cls-108{fill:#929292;}.cls-109{fill:#919191;}.cls-110{fill:#8f8f8f;}.cls-111{fill:#8e8e8e;}.cls-112{fill:#8d8d8d;}.cls-113{fill:#8b8b8b;}.cls-114{fill:#8a8a8a;}.cls-115{fill:#888;}.cls-116{fill:#878787;}.cls-117{fill:#868686;}.cls-118{fill:#848484;}.cls-119{fill:#838383;}.cls-120{fill:#818181;}.cls-121{fill:gray;}.cls-122{fill:#7e7e7e;}.cls-123{fill:#7d7d7d;}.cls-124{fill:#7c7c7c;}.cls-125{fill:#7a7a7a;}.cls-126{fill:#797979;}.cls-127{fill:#777;}.cls-128{fill:#767676;}.cls-129{fill:#747474;}.cls-130{fill:#737373;}.cls-131{fill:#717171;}.cls-132{fill:#707070;}.cls-133{fill:#6e6e6e;}.cls-134{fill:#6c6c6c;}.cls-135{fill:#6b6b6b;}.cls-136{fill:#696969;}.cls-137{fill:#686868;}.cls-138{fill:#666;}.cls-139{fill:#656565;}.cls-140{fill:#636363;}.cls-141{fill:#616161;}.cls-142{fill:#606060;}.cls-143{fill:#5e5e5e;}.cls-144{fill:#5d5d5d;}.cls-145{fill:#5b5b5b;}.cls-146{fill:#595959;}.cls-147{fill:#585858;}.cls-148{fill:#565656;}.cls-149{fill:#545454;}.cls-150{fill:#535353;}.cls-151{fill:#515151;}.cls-152{fill:#4f4f4f;}.cls-153{fill:#4e4e4e;}.cls-154{fill:#4c4c4c;}.cls-155{fill:#4a4a4a;}.cls-156{fill:#494949;}.cls-157{fill:#474747;}.cls-158{fill:#454545;}.cls-159{fill:#444;}.cls-160{fill:#424242;}.cls-161{fill:#404040;}.cls-162{fill:#3e3e3e;}.cls-163{fill:#3d3d3d;}.cls-164{fill:#3b3b3b;}.cls-165{fill:#393939;}.cls-166{fill:#373737;}.cls-167{fill:#363636;}.cls-168{fill:#343434;}.cls-169{fill:#323232;}.cls-170{fill:#303030;}.cls-171{fill:#2e2e2e;}.cls-172{fill:#2c2c2c;}.cls-173{fill:#2b2b2b;}.cls-174{fill:#292929;}.cls-175{fill:#272727;}.cls-176{fill:url(#radial-gradient-2);}.cls-177{opacity:0.74;}.cls-178{clip-path:url(#clip-path-2);}.cls-179{fill:url(#linear-gradient-2);}.cls-180{fill:url(#linear-gradient-3);}.cls-181{fill:url(#linear-gradient-4);}.cls-182{font-size:9.33px;fill:#bbd2ff;}.cls-182,.cls-183{font-family:Arial-Black, Arial;font-weight:800;}.cls-183{font-size:12.57px;fill:#3335cf;}</style><linearGradient id="linear-gradient" x1="10.9" y1="33.58" x2="52.4" y2="30.83" gradientUnits="userSpaceOnUse"><stop offset="0" stop-color="#61beff"/><stop offset="1" stop-color="#0076f1"/></linearGradient><radialGradient id="radial-gradient" cx="167.25" cy="269.17" r="4.49" gradientTransform="matrix(-0.12, -0.95, 1.98, -0.49, -473.14, 314.09)" gradientUnits="userSpaceOnUse"><stop offset="0.05" stop-color="#272727"/><stop offset="0.22" stop-color="#5e5e5e"/><stop offset="0.41" stop-color="#979797"/><stop offset="0.59" stop-color="#c4c4c4"/><stop offset="0.75" stop-color="#e4e4e4"/><stop offset="0.88" stop-color="#f8f8f8"/><stop offset="0.97" stop-color="#fff"/></radialGradient><clipPath id="clip-path"><path class="cls-1" d="M36.49,32.38c-14.34.28-25.2,2.49-24.11,4.94s13.67,4.22,28,4c14.56-.28,25.46-2.49,24.32-5S51,32.1,36.49,32.38Z"/></clipPath><radialGradient id="radial-gradient-2" cx="168.97" cy="259.99" r="4.49" gradientTransform="matrix(-0.3, -0.91, 1.84, -0.87, -406.94, 409.28)" gradientUnits="userSpaceOnUse"><stop offset="0.05" stop-color="#3335cf"/><stop offset="0.19" stop-color="#5e60d9"/><stop offset="0.39" stop-color="#9798e6"/><stop offset="0.57" stop-color="#c4c4f1"/><stop offset="0.74" stop-color="#e4e4f9"/><stop offset="0.88" stop-color="#f8f8fd"/><stop offset="0.97" stop-color="#fff"/></radialGradient><clipPath id="clip-path-2"><path class="cls-1" d="M29.31,32.38c14.34.28,25.2,2.49,24.12,4.94s-13.68,4.22-28,4C10.9,41,0,38.78,1.13,36.32S14.83,32.1,29.31,32.38Z"/></clipPath><linearGradient id="linear-gradient-2" x1="20.03" y1="11.6" x2="45.54" y2="11.6" gradientUnits="userSpaceOnUse"><stop offset="0" stop-color="#bbd2ff"/><stop offset="1" stop-color="#3335cf"/></linearGradient><linearGradient id="linear-gradient-3" x1="11.06" y1="36.06" x2="52.56" y2="33.31" xlink:href="#linear-gradient-2"/><linearGradient id="linear-gradient-4" x1="54.82" y1="18.32" x2="8.4" y2="24.08" gradientUnits="userSpaceOnUse"><stop offset="0" stop-color="#3335cf"/><stop offset="1" stop-color="#bbd2ff"/></linearGradient></defs><title>Asset 1</title><g class="cls-2"><g id="Layer_2" data-name="Layer 2"><g id="Layer_1-2" data-name="Layer 1"><path class="cls-3" d="M34.7,30.88H25.9c-.31.85-.63,1.68-.95,2.51s-.65,1.68-1,2.52a1.25,1.25,0,0,1-1.27.92h-7.3a1.2,1.2,0,0,1-.78-.25.59.59,0,0,1-.11-.74l2.58-6.71c5.69.45,11.8,1.35,17.59,1.75Z"/><path class="cls-4" d="M38.55,17.45c4.91-1.23,9.2-.19,9.53,2.31s-3.42,5.56-8.32,6.78-9.29.23-9.6-2.29S33.59,18.7,38.55,17.45Z"/><g class="cls-5"><rect class="cls-6" x="11.29" y="32.1" width="54.51" height="9.44"/><path class="cls-7" d="M15.18,37c0,1.72,10.12,2.9,22.55,2.66s22.48-1.85,22.45-3.56S50.05,33.15,37.63,33.4,15.15,35.24,15.18,37Z"/><path class="cls-7" d="M15.31,37c0,1.71,10.08,2.89,22.46,2.64s22.38-1.83,22.36-3.54S50,33.16,37.67,33.41,15.28,35.25,15.31,37Z"/><path class="cls-7" d="M15.44,37c0,1.7,10,2.88,22.37,2.63s22.29-1.83,22.26-3.53-10-2.88-22.36-2.63S15.41,35.25,15.44,37Z"/><path class="cls-7" d="M15.57,37c0,1.7,10,2.88,22.27,2.63S60.05,37.76,60,36.06s-10-2.87-22.27-2.62S15.54,35.26,15.57,37Z"/><path class="cls-7" d="M15.7,37c0,1.69,10,2.86,22.18,2.62S60,37.75,60,36.07s-10-2.86-22.18-2.62S15.67,35.26,15.7,37Z"/><path class="cls-7" d="M15.83,37c0,1.68,9.92,2.85,22.09,2.61s22-1.81,22-3.49S50,33.22,37.82,33.46,15.8,35.27,15.83,37Z"/><path class="cls-7" d="M16,37c0,1.67,9.88,2.84,22,2.59s21.93-1.8,21.91-3.47-9.88-2.84-22-2.59S15.93,35.27,16,37Z"/><path class="cls-7" d="M16.09,37c0,1.67,9.84,2.82,21.91,2.58s21.84-1.79,21.81-3.46S50,33.25,37.9,33.49,16.06,35.28,16.09,37Z"/><path class="cls-8" d="M16.22,37c0,1.66,9.8,2.81,21.82,2.57s21.75-1.79,21.72-3.45S50,33.26,37.94,33.5,16.19,35.29,16.22,37Z"/><path class="cls-8" d="M16.35,36.94c0,1.66,9.75,2.81,21.73,2.57s21.66-1.78,21.63-3.43S50,33.27,38,33.52,16.32,35.29,16.35,36.94Z"/><path class="cls-8" d="M16.48,36.94c0,1.65,9.71,2.79,21.64,2.55s21.56-1.76,21.54-3.41S49.94,33.29,38,33.53,16.45,35.3,16.48,36.94Z"/><path class="cls-8" d="M16.61,36.94c0,1.64,9.67,2.78,21.55,2.54s21.47-1.76,21.44-3.4-9.67-2.78-21.54-2.54S16.58,35.3,16.61,36.94Z"/><path class="cls-8" d="M16.74,36.94c0,1.63,9.63,2.77,21.45,2.53s21.39-1.75,21.36-3.39-9.63-2.76-21.45-2.53S16.71,35.31,16.74,36.94Z"/><path class="cls-8" d="M16.87,36.94c0,1.63,9.59,2.75,21.36,2.52s21.3-1.75,21.27-3.38-9.59-2.75-21.36-2.51S16.84,35.31,16.87,36.94Z"/><path class="cls-8" d="M17,36.94c0,1.62,9.55,2.74,21.27,2.5s21.2-1.73,21.18-3.35-9.55-2.74-21.27-2.51S17,35.32,17,36.94Z"/><path class="cls-9" d="M17.13,36.94c0,1.61,9.51,2.73,21.18,2.49S59.42,37.7,59.4,36.09s-9.51-2.73-21.18-2.5S17.11,35.32,17.13,36.94Z"/><path class="cls-9" d="M17.26,36.93c0,1.61,9.47,2.72,21.09,2.49s21-1.72,21-3.33-9.46-2.72-21.08-2.48S17.24,35.33,17.26,36.93Z"/><path class="cls-9" d="M17.39,36.93c0,1.6,9.43,2.71,21,2.48s20.93-1.72,20.9-3.32-9.42-2.7-21-2.47S17.37,35.33,17.39,36.93Z"/><path class="cls-9" d="M17.52,36.93c0,1.59,9.39,2.7,20.91,2.46s20.83-1.7,20.81-3.29-9.39-2.7-20.91-2.47S17.5,35.34,17.52,36.93Z"/><path class="cls-10" d="M17.65,36.93c0,1.59,9.35,2.68,20.82,2.45s20.74-1.7,20.72-3.28-9.35-2.69-20.82-2.46S17.63,35.35,17.65,36.93Z"/><path class="cls-10" d="M17.78,36.93c0,1.58,9.31,2.67,20.72,2.44s20.66-1.69,20.63-3.27-9.3-2.67-20.72-2.44S17.76,35.35,17.78,36.93Z"/><path class="cls-10" d="M17.91,36.93c0,1.57,9.26,2.66,20.63,2.43s20.57-1.69,20.54-3.26-9.26-2.66-20.63-2.43S17.89,35.36,17.91,36.93Z"/><path class="cls-10" d="M18,36.93c0,1.56,9.22,2.64,20.54,2.42S59.06,37.67,59,36.1s-9.22-2.64-20.54-2.42S18,35.36,18,36.93Z"/><path class="cls-11" d="M18.17,36.92c0,1.56,9.18,2.64,20.45,2.41S59,37.66,59,36.11,49.8,33.47,38.53,33.7,18.15,35.37,18.17,36.92Z"/><path class="cls-11" d="M18.3,36.92c0,1.55,9.14,2.63,20.36,2.4S59,37.66,58.93,36.11s-9.14-2.63-20.36-2.4S18.28,35.37,18.3,36.92Z"/><path class="cls-11" d="M18.43,36.92c0,1.54,9.1,2.61,20.27,2.39s20.2-1.66,20.17-3.2-9.09-2.61-20.26-2.39S18.41,35.38,18.43,36.92Z"/><path class="cls-11" d="M18.56,36.92c0,1.54,9.06,2.6,20.18,2.38s20.11-1.65,20.08-3.19-9-2.6-20.17-2.38S18.54,35.38,18.56,36.92Z"/><path class="cls-12" d="M18.69,36.92c0,1.53,9,2.59,20.09,2.36s20-1.64,20-3.17-9-2.58-20.08-2.36S18.67,35.39,18.69,36.92Z"/><path class="cls-12" d="M18.83,36.92c0,1.52,9,2.57,20,2.35s19.92-1.63,19.9-3.15-9-2.58-20-2.36S18.8,35.39,18.83,36.92Z"/><path class="cls-12" d="M19,36.92c0,1.51,8.93,2.56,19.89,2.34s19.84-1.63,19.82-3.14-8.94-2.57-19.9-2.35S18.93,35.4,19,36.92Z"/><path class="cls-13" d="M19.09,36.91c0,1.51,8.89,2.56,19.8,2.34s19.75-1.62,19.72-3.13-8.89-2.55-19.8-2.33S19.06,35.4,19.09,36.91Z"/><path class="cls-13" d="M19.22,36.91c0,1.5,8.85,2.54,19.71,2.33s19.66-1.62,19.63-3.12-8.85-2.54-19.72-2.32S19.19,35.41,19.22,36.91Z"/><path class="cls-14" d="M19.35,36.91c0,1.49,8.81,2.53,19.62,2.31s19.56-1.6,19.54-3.09S49.7,33.6,38.88,33.81,19.32,35.42,19.35,36.91Z"/><path class="cls-14" d="M19.48,36.91c0,1.49,8.77,2.52,19.53,2.3s19.47-1.6,19.45-3.08-8.77-2.52-19.54-2.3S19.45,35.42,19.48,36.91Z"/><path class="cls-14" d="M19.61,36.91c0,1.48,8.72,2.5,19.44,2.29s19.38-1.59,19.36-3.07S49.68,33.62,39,33.84,19.58,35.43,19.61,36.91Z"/><path class="cls-15" d="M19.74,36.91c0,1.47,8.68,2.49,19.35,2.28s19.29-1.59,19.26-3.06S49.66,33.64,39,33.85,19.71,35.43,19.74,36.91Z"/><path class="cls-15" d="M19.87,36.9c0,1.47,8.64,2.49,19.26,2.27s19.19-1.57,19.17-3S49.65,33.65,39,33.86,19.84,35.44,19.87,36.9Z"/><path class="cls-16" d="M20,36.9c0,1.46,8.6,2.47,19.16,2.26s19.11-1.56,19.09-3-8.61-2.47-19.17-2.26S20,35.44,20,36.9Z"/><path class="cls-16" d="M20.13,36.9c0,1.45,8.56,2.46,19.07,2.25s19-1.56,19-3-8.57-2.46-19.08-2.25S20.1,35.45,20.13,36.9Z"/><path class="cls-16" d="M20.26,36.9c0,1.45,8.52,2.45,19,2.24s18.93-1.55,18.9-3-8.52-2.45-19-2.24S20.23,35.45,20.26,36.9Z"/><path class="cls-17" d="M20.39,36.9c0,1.44,8.48,2.43,18.89,2.23s18.84-1.55,18.81-3-8.48-2.43-18.89-2.22S20.37,35.46,20.39,36.9Z"/><path class="cls-17" d="M20.52,36.9c0,1.43,8.44,2.42,18.8,2.21s18.74-1.53,18.72-3-8.44-2.42-18.8-2.21S20.5,35.47,20.52,36.9Z"/><path class="cls-18" d="M20.65,36.89c0,1.43,8.4,2.42,18.71,2.21S58,37.57,58,36.15s-8.4-2.42-18.71-2.21S20.63,35.47,20.65,36.89Z"/><path class="cls-18" d="M20.78,36.89c0,1.42,8.36,2.4,18.62,2.2S58,37.57,57.94,36.15,49.58,33.75,39.32,34,20.76,35.48,20.78,36.89Z"/><path class="cls-19" d="M20.91,36.89c0,1.41,8.32,2.39,18.53,2.19s18.47-1.52,18.44-2.93S49.57,33.76,39.36,34,20.89,35.48,20.91,36.89Z"/><path class="cls-19" d="M21,36.89c0,1.4,8.28,2.38,18.44,2.17s18.37-1.5,18.35-2.91S49.55,33.78,39.39,34,21,35.49,21,36.89Z"/><path class="cls-20" d="M21.17,36.89c0,1.4,8.24,2.36,18.35,2.16s18.28-1.5,18.26-2.89S49.54,33.79,39.43,34,21.15,35.49,21.17,36.89Z"/><path class="cls-20" d="M21.3,36.89c0,1.39,8.2,2.35,18.25,2.15s18.2-1.49,18.18-2.88S49.53,33.81,39.47,34,21.28,35.5,21.3,36.89Z"/><path class="cls-21" d="M21.43,36.89c0,1.38,8.15,2.34,18.16,2.14s18.11-1.49,18.08-2.87S49.52,33.82,39.51,34,21.41,35.5,21.43,36.89Z"/><path class="cls-21" d="M21.56,36.89c0,1.37,8.11,2.32,18.07,2.13s18-1.48,18-2.86S49.51,33.83,39.55,34,21.54,35.51,21.56,36.89Z"/><path class="cls-22" d="M21.69,36.88c0,1.37,8.07,2.32,18,2.12s17.92-1.47,17.9-2.84-8.07-2.31-18-2.11S21.67,35.52,21.69,36.88Z"/><path class="cls-22" d="M21.82,36.88c0,1.36,8,2.31,17.89,2.11s17.83-1.46,17.81-2.82-8-2.31-17.89-2.11S21.8,35.52,21.82,36.88Z"/><path class="cls-23" d="M22,36.88c0,1.35,8,2.29,17.8,2.1s17.74-1.46,17.72-2.81-8-2.3-17.8-2.1S21.93,35.52,22,36.88Z"/><path class="cls-24" d="M22.08,36.88c0,1.35,8,2.28,17.71,2.09s17.65-1.45,17.62-2.8-7.94-2.28-17.7-2.09S22.06,35.53,22.08,36.88Z"/><path class="cls-24" d="M22.21,36.88c0,1.34,7.91,2.27,17.62,2.07s17.55-1.44,17.53-2.78S49.45,33.9,39.75,34.1,22.19,35.54,22.21,36.88Z"/><path class="cls-25" d="M22.34,36.88c0,1.33,7.87,2.25,17.53,2.06s17.46-1.43,17.44-2.77-7.87-2.25-17.52-2.06S22.32,35.54,22.34,36.88Z"/><path class="cls-25" d="M22.47,36.87c0,1.33,7.83,2.25,17.43,2.06s17.38-1.43,17.36-2.75-7.83-2.25-17.43-2.06S22.45,35.55,22.47,36.87Z"/><path class="cls-26" d="M22.6,36.87c0,1.32,7.79,2.24,17.34,2.05s17.29-1.42,17.27-2.74-7.79-2.24-17.34-2S22.58,35.55,22.6,36.87Z"/><path class="cls-27" d="M22.73,36.87c0,1.31,7.75,2.22,17.25,2s17.19-1.41,17.17-2.72-7.74-2.22-17.24-2S22.71,35.56,22.73,36.87Z"/><path class="cls-27" d="M22.86,36.87c0,1.31,7.71,2.21,17.16,2s17.1-1.4,17.08-2.71-7.7-2.21-17.16-2S22.84,35.56,22.86,36.87Z"/><path class="cls-28" d="M23,36.87c0,1.3,7.67,2.2,17.07,2s17-1.4,17-2.7S49.39,34,40,34.17,23,35.57,23,36.87Z"/><path class="cls-28" d="M23.12,36.87c0,1.29,7.62,2.18,17,2S57,37.48,57,36.19s-7.62-2.19-17-2S23.1,35.57,23.12,36.87Z"/><path class="cls-29" d="M23.25,36.87c0,1.28,7.58,2.17,16.89,2S57,37.48,56.94,36.19s-7.57-2.18-16.88-2S23.23,35.58,23.25,36.87Z"/><path class="cls-30" d="M23.38,36.86c0,1.28,7.54,2.17,16.8,2s16.73-1.37,16.71-2.65-7.54-2.16-16.79-2S23.36,35.59,23.38,36.86Z"/><path class="cls-30" d="M23.52,36.86c0,1.27,7.49,2.15,16.69,2s16.65-1.36,16.63-2.64-7.5-2.15-16.7-2S23.49,35.59,23.52,36.86Z"/><path class="cls-31" d="M23.65,36.86c0,1.27,7.45,2.14,16.6,2s16.56-1.36,16.54-2.62-7.46-2.14-16.61-2S23.62,35.6,23.65,36.86Z"/><path class="cls-32" d="M23.78,36.86c0,1.26,7.41,2.13,16.51,2s16.47-1.35,16.45-2.61-7.42-2.13-16.52-2S23.76,35.6,23.78,36.86Z"/><path class="cls-32" d="M23.91,36.86c0,1.25,7.37,2.11,16.42,1.93S56.7,37.45,56.68,36.2s-7.37-2.12-16.42-1.94S23.89,35.61,23.91,36.86Z"/><path class="cls-33" d="M24,36.86c0,1.24,7.33,2.1,16.33,1.92s16.28-1.33,16.26-2.58S49.3,34.1,40.3,34.28,24,35.61,24,36.86Z"/><path class="cls-34" d="M24.17,36.85c0,1.24,7.29,2.1,16.24,1.92S56.6,37.44,56.58,36.2s-7.29-2.09-16.24-1.91S24.15,35.62,24.17,36.85Z"/><path class="cls-35" d="M24.3,36.85c0,1.23,7.25,2.08,16.15,1.91s16.1-1.32,16.08-2.55-7.25-2.09-16.15-1.91S24.28,35.62,24.3,36.85Z"/><path class="cls-35" d="M24.43,36.85c0,1.22,7.21,2.07,16.06,1.89s16-1.31,16-2.53-7.21-2.07-16.06-1.89S24.41,35.63,24.43,36.85Z"/><path class="cls-36" d="M24.56,36.85c0,1.22,7.17,2.06,16,1.88s15.91-1.3,15.89-2.52-7.17-2.06-16-1.88S24.54,35.63,24.56,36.85Z"/><path class="cls-37" d="M24.69,36.85c0,1.21,7.13,2,15.87,1.87s15.83-1.3,15.81-2.51-7.13-2-15.88-1.87S24.67,35.64,24.69,36.85Z"/><path class="cls-38" d="M24.82,36.85c0,1.2,7.08,2,15.78,1.86s15.74-1.29,15.72-2.49-7.09-2-15.79-1.86S24.8,35.65,24.82,36.85Z"/><path class="cls-38" d="M25,36.85c0,1.19,7,2,15.69,1.84s15.65-1.28,15.63-2.47-7.05-2-15.7-1.85S24.93,35.65,25,36.85Z"/><path class="cls-39" d="M25.08,36.84c0,1.19,7,2,15.6,1.84s15.55-1.27,15.53-2.46-7-2-15.6-1.84S25.06,35.66,25.08,36.84Z"/><path class="cls-40" d="M25.21,36.84c0,1.18,7,2,15.51,1.83s15.46-1.27,15.44-2.45-7-2-15.51-1.83S25.19,35.66,25.21,36.84Z"/><path class="cls-41" d="M25.34,36.84c0,1.18,6.92,2,15.42,1.82s15.37-1.26,15.35-2.44-6.92-2-15.42-1.81S25.32,35.67,25.34,36.84Z"/><path class="cls-41" d="M25.47,36.84c0,1.17,6.88,2,15.33,1.81s15.28-1.26,15.26-2.42-6.88-2-15.33-1.81S25.45,35.67,25.47,36.84Z"/><path class="cls-42" d="M25.6,36.84c0,1.16,6.84,2,15.24,1.79S56,37.39,56,36.23s-6.85-2-15.24-1.8S25.58,35.68,25.6,36.84Z"/><path class="cls-43" d="M25.73,36.84c0,1.15,6.8,1.95,15.14,1.78S56,37.38,56,36.23s-6.8-1.95-15.14-1.78S25.71,35.68,25.73,36.84Z"/><path class="cls-44" d="M25.86,36.83c0,1.15,6.76,1.94,15,1.78s15-1.23,15-2.38-6.76-1.94-15-1.77S25.84,35.69,25.86,36.83Z"/><path class="cls-45" d="M26,36.83c0,1.14,6.72,1.93,15,1.77s14.92-1.23,14.9-2.36-6.72-1.93-15-1.77S26,35.69,26,36.83Z"/><path class="cls-46" d="M26.12,36.83c0,1.13,6.68,1.92,14.87,1.75s14.83-1.21,14.81-2.34-6.68-1.92-14.87-1.76S26.1,35.7,26.12,36.83Z"/><path class="cls-46" d="M26.25,36.83c0,1.13,6.64,1.91,14.78,1.74s14.73-1.21,14.72-2.33S49.11,34.33,41,34.5,26.23,35.7,26.25,36.83Z"/><path class="cls-47" d="M26.38,36.83c0,1.12,6.6,1.89,14.69,1.73s14.64-1.2,14.62-2.32S49.1,34.35,41,34.51,26.36,35.71,26.38,36.83Z"/><path class="cls-48" d="M26.51,36.83c0,1.11,6.55,1.88,14.6,1.72s14.55-1.2,14.53-2.31S49.09,34.36,41,34.52,26.49,35.72,26.51,36.83Z"/><path class="cls-49" d="M26.64,36.83c0,1.1,6.51,1.87,14.51,1.71s14.46-1.19,14.44-2.29-6.51-1.87-14.51-1.71S26.62,35.72,26.64,36.83Z"/><path class="cls-50" d="M26.77,36.82c0,1.1,6.47,1.86,14.42,1.7s14.36-1.17,14.35-2.27-6.47-1.86-14.42-1.7S26.75,35.73,26.77,36.82Z"/><path class="cls-51" d="M26.9,36.82c0,1.09,6.43,1.85,14.32,1.69s14.28-1.17,14.26-2.26-6.43-1.85-14.32-1.69S26.89,35.73,26.9,36.82Z"/><path class="cls-52" d="M27,36.82c0,1.08,6.39,1.84,14.23,1.68s14.19-1.16,14.17-2.25S49,34.42,41.2,34.57,27,35.74,27,36.82Z"/><path class="cls-53" d="M27.16,36.82c0,1.08,6.35,1.82,14.14,1.67s14.1-1.16,14.08-2.24S49,34.43,41.24,34.59,27.15,35.74,27.16,36.82Z"/><path class="cls-53" d="M27.29,36.82c0,1.07,6.31,1.81,14.05,1.65s14-1.14,14-2.21-6.31-1.81-14-1.66S27.28,35.75,27.29,36.82Z"/><path class="cls-54" d="M27.42,36.82c0,1.06,6.27,1.8,14,1.64s13.91-1.14,13.9-2.2-6.27-1.8-14-1.65S27.41,35.75,27.42,36.82Z"/><path class="cls-55" d="M27.55,36.82c0,1,6.23,1.78,13.87,1.63s13.82-1.13,13.8-2.19S49,34.47,41.36,34.63,27.54,35.76,27.55,36.82Z"/><path class="cls-56" d="M27.68,36.81c0,1,6.19,1.78,13.78,1.63s13.73-1.13,13.71-2.18S49,34.49,41.4,34.64,27.67,35.77,27.68,36.81Z"/><path class="cls-57" d="M27.81,36.81c0,1,6.15,1.77,13.69,1.61s13.64-1.11,13.62-2.15S49,34.5,41.44,34.65,27.8,35.77,27.81,36.81Z"/><path class="cls-58" d="M27.94,36.81c0,1,6.11,1.75,13.6,1.6s13.54-1.11,13.53-2.14S49,34.52,41.48,34.67,27.93,35.78,27.94,36.81Z"/><path class="cls-59" d="M28.08,36.81c0,1,6.06,1.74,13.5,1.59S55,37.3,55,36.27,49,34.53,41.51,34.68,28.06,35.78,28.08,36.81Z"/><path class="cls-60" d="M28.21,36.81c0,1,6,1.73,13.4,1.58S55,37.29,55,36.27s-6-1.73-13.41-1.58S28.19,35.79,28.21,36.81Z"/><path class="cls-61" d="M28.34,36.81c0,1,6,1.71,13.31,1.57s13.28-1.09,13.26-2.11-6-1.71-13.32-1.57S28.32,35.79,28.34,36.81Z"/><path class="cls-62" d="M28.47,36.81c0,1,5.93,1.7,13.22,1.55s13.18-1.08,13.17-2.08-5.94-1.71-13.23-1.56S28.45,35.8,28.47,36.81Z"/><path class="cls-63" d="M28.6,36.8c0,1,5.89,1.7,13.13,1.55s13.09-1.07,13.08-2.07-5.9-1.7-13.14-1.55S28.58,35.8,28.6,36.8Z"/><path class="cls-64" d="M28.73,36.8c0,1,5.85,1.68,13,1.54s13-1.07,13-2.06-5.85-1.68-13-1.54S28.71,35.81,28.73,36.8Z"/><path class="cls-65" d="M28.86,36.8c0,1,5.81,1.67,13,1.53s12.91-1.06,12.89-2-5.81-1.67-13-1.52S28.84,35.81,28.86,36.8Z"/><path class="cls-66" d="M29,36.8c0,1,5.77,1.66,12.86,1.51s12.81-1.05,12.8-2-5.77-1.65-12.86-1.51S29,35.82,29,36.8Z"/><path class="cls-67" d="M29.12,36.8c0,1,5.73,1.64,12.77,1.5s12.72-1,12.71-2-5.73-1.65-12.77-1.51S29.1,35.83,29.12,36.8Z"/><path class="cls-68" d="M29.25,36.8c0,1,5.69,1.63,12.67,1.49s12.64-1,12.62-2-5.69-1.64-12.67-1.5S29.23,35.83,29.25,36.8Z"/><path class="cls-69" d="M29.38,36.79c0,1,5.65,1.63,12.58,1.49s12.55-1,12.53-2-5.65-1.62-12.58-1.48S29.36,35.84,29.38,36.79Z"/><path class="cls-70" d="M29.51,36.79c0,1,5.61,1.61,12.49,1.48s12.46-1,12.44-2S48.83,34.68,42,34.82,29.49,35.84,29.51,36.79Z"/><path class="cls-71" d="M29.64,36.79c0,1,5.57,1.6,12.4,1.46s12.36-1,12.35-2S48.82,34.7,42,34.83,29.62,35.85,29.64,36.79Z"/><path class="cls-72" d="M29.77,36.79c0,.94,5.53,1.59,12.31,1.45s12.27-1,12.26-1.94S48.81,34.71,42,34.85,29.75,35.85,29.77,36.79Z"/><path class="cls-73" d="M29.9,36.79c0,.93,5.48,1.57,12.22,1.44s12.18-1,12.16-1.93-5.48-1.57-12.22-1.44S29.88,35.86,29.9,36.79Z"/><path class="cls-74" d="M30,36.79c0,.92,5.44,1.56,12.13,1.43s12.09-1,12.07-1.92-5.44-1.56-12.13-1.43S30,35.86,30,36.79Z"/><path class="cls-75" d="M30.16,36.79c0,.91,5.4,1.55,12,1.41s12-1,12-1.9-5.4-1.55-12-1.41S30.14,35.87,30.16,36.79Z"/><path class="cls-76" d="M30.29,36.78c0,.91,5.36,1.54,12,1.41s11.9-1,11.89-1.88-5.36-1.54-12-1.41S30.28,35.87,30.29,36.78Z"/><path class="cls-77" d="M30.42,36.78c0,.9,5.32,1.53,11.85,1.4s11.82-1,11.81-1.87-5.33-1.53-11.86-1.4S30.41,35.88,30.42,36.78Z"/><path class="cls-78" d="M30.55,36.78c0,.9,5.28,1.52,11.76,1.39S54,37.21,54,36.31s-5.28-1.52-11.76-1.39S30.54,35.89,30.55,36.78Z"/><path class="cls-79" d="M30.68,36.78c0,.89,5.24,1.5,11.67,1.38S54,37.2,54,36.31s-5.24-1.5-11.67-1.37S30.67,35.89,30.68,36.78Z"/><path class="cls-80" d="M30.81,36.78c0,.88,5.2,1.49,11.58,1.36s11.54-.94,11.53-1.83S48.72,34.82,42.34,35,30.8,35.9,30.81,36.78Z"/><path class="cls-81" d="M30.94,36.78c0,.87,5.16,1.48,11.49,1.35s11.45-.94,11.44-1.81S48.71,34.84,42.38,35,30.93,35.9,30.94,36.78Z"/><path class="cls-82" d="M31.07,36.77c0,.87,5.12,1.47,11.4,1.35s11.36-.93,11.35-1.8S48.7,34.85,42.42,35,31.06,35.91,31.07,36.77Z"/><path class="cls-83" d="M31.2,36.77c0,.86,5.08,1.46,11.31,1.34s11.27-.93,11.25-1.79S48.69,34.86,42.46,35,31.19,35.91,31.2,36.77Z"/><path class="cls-84" d="M31.33,36.77c0,.86,5,1.45,11.22,1.32s11.17-.91,11.16-1.77-5-1.44-11.21-1.32S31.32,35.92,31.33,36.77Z"/><path class="cls-85" d="M31.46,36.77c0,.85,5,1.43,11.12,1.31s11.09-.91,11.08-1.75-5-1.44-11.12-1.31S31.45,35.92,31.46,36.77Z"/><path class="cls-86" d="M31.59,36.77c0,.84,4.95,1.42,11,1.3s11-.9,11-1.74-5-1.42-11-1.3S31.58,35.93,31.59,36.77Z"/><path class="cls-87" d="M31.72,36.77c0,.83,4.91,1.41,10.94,1.29s10.91-.9,10.89-1.73S48.64,34.92,42.61,35,31.71,35.93,31.72,36.77Z"/><path class="cls-88" d="M31.85,36.77c0,.82,4.87,1.39,10.85,1.27s10.82-.88,10.8-1.71-4.87-1.4-10.85-1.28S31.84,35.94,31.85,36.77Z"/><path class="cls-89" d="M32,36.76c0,.82,4.83,1.39,10.76,1.27s10.72-.88,10.71-1.7S48.62,35,42.69,35.07,32,36,32,36.76Z"/><path class="cls-90" d="M32.11,36.76c0,.81,4.79,1.38,10.67,1.26s10.63-.87,10.62-1.68S48.61,35,42.73,35.08,32.1,36,32.11,36.76Z"/><path class="cls-91" d="M32.24,36.76c0,.81,4.75,1.36,10.58,1.25s10.54-.87,10.53-1.67S48.6,35,42.77,35.09,32.23,36,32.24,36.76Z"/><path class="cls-92" d="M32.37,36.76c0,.8,4.71,1.35,10.49,1.24s10.45-.86,10.43-1.66S48.59,35,42.81,35.1,32.36,36,32.37,36.76Z"/><path class="cls-93" d="M32.5,36.76c0,.79,4.67,1.34,10.4,1.22s10.35-.85,10.34-1.64S48.58,35,42.85,35.12,32.49,36,32.5,36.76Z"/><path class="cls-94" d="M32.63,36.76c0,.78,4.63,1.32,10.3,1.21s10.27-.84,10.26-1.62S48.56,35,42.89,35.13,32.62,36,32.63,36.76Z"/><path class="cls-95" d="M32.76,36.76c0,.77,4.59,1.31,10.21,1.2s10.18-.84,10.17-1.61S48.55,35,42.93,35.14,32.75,36,32.76,36.76Z"/><path class="cls-96" d="M32.89,36.75c0,.77,4.55,1.31,10.12,1.2s10.09-.83,10.07-1.6S48.54,35,43,35.16,32.88,36,32.89,36.75Z"/><path class="cls-97" d="M33,36.75c0,.77,4.51,1.3,10,1.18s10-.82,10-1.58-4.5-1.29-10-1.18S33,36,33,36.75Z"/><path class="cls-98" d="M33.16,36.75c0,.76,4.46,1.28,9.93,1.17S53,37.11,53,36.35,48.52,35.07,43,35.18,33.14,36,33.16,36.75Z"/><path class="cls-99" d="M33.29,36.75c0,.75,4.41,1.27,9.84,1.16s9.81-.81,9.8-1.56-4.42-1.26-9.85-1.15S33.27,36,33.29,36.75Z"/><path class="cls-100" d="M33.42,36.75c0,.74,4.37,1.26,9.75,1.15s9.72-.8,9.7-1.54-4.37-1.26-9.75-1.15S33.4,36,33.42,36.75Z"/><path class="cls-101" d="M33.55,36.75c0,.73,4.33,1.24,9.66,1.14s9.62-.79,9.61-1.53-4.33-1.25-9.66-1.14S33.53,36,33.55,36.75Z"/><path class="cls-102" d="M33.68,36.74c0,.73,4.29,1.24,9.57,1.13s9.53-.78,9.52-1.51-4.29-1.23-9.57-1.13S33.66,36,33.68,36.74Z"/><path class="cls-103" d="M33.81,36.74c0,.73,4.25,1.23,9.47,1.12s9.45-.77,9.44-1.5-4.26-1.22-9.48-1.11S33.79,36,33.81,36.74Z"/><path class="cls-104" d="M33.94,36.74c0,.72,4.21,1.21,9.38,1.11s9.36-.77,9.35-1.48-4.22-1.21-9.39-1.11S33.93,36,33.94,36.74Z"/><path class="cls-105" d="M34.07,36.74c0,.71,4.17,1.2,9.29,1.1s9.27-.76,9.25-1.47-4.17-1.2-9.29-1.1S34.06,36,34.07,36.74Z"/><path class="cls-106" d="M34.2,36.74c0,.7,4.13,1.19,9.2,1.08s9.17-.75,9.16-1.45-4.13-1.19-9.2-1.08S34.19,36,34.2,36.74Z"/><path class="cls-107" d="M34.33,36.74c0,.69,4.09,1.17,9.11,1.07s9.08-.74,9.07-1.44S48.42,35.2,43.4,35.3,34.32,36,34.33,36.74Z"/><path class="cls-108" d="M34.46,36.74c0,.68,4,1.16,9,1.06s9-.74,9-1.43-4.05-1.16-9-1.06S34.45,36.05,34.46,36.74Z"/><path class="cls-109" d="M34.59,36.73c0,.68,4,1.16,8.93,1.06s8.9-.73,8.89-1.41-4-1.15-8.93-1.05S34.58,36.06,34.59,36.73Z"/><path class="cls-110" d="M34.72,36.73c0,.68,4,1.14,8.84,1s8.8-.72,8.79-1.39-4-1.14-8.83-1S34.71,36.06,34.72,36.73Z"/><path class="cls-111" d="M34.85,36.73c0,.67,3.93,1.13,8.74,1s8.72-.71,8.71-1.38-3.93-1.13-8.74-1S34.84,36.06,34.85,36.73Z"/><path class="cls-112" d="M35,36.73c0,.66,3.88,1.12,8.65,1s8.63-.71,8.62-1.37-3.89-1.11-8.66-1S35,36.07,35,36.73Z"/><path class="cls-113" d="M35.11,36.73c0,.65,3.84,1.1,8.56,1s8.54-.7,8.53-1.35-3.85-1.11-8.57-1S35.1,36.08,35.11,36.73Z"/><path class="cls-114" d="M35.24,36.73c0,.64,3.8,1.09,8.47,1s8.45-.7,8.44-1.34-3.81-1.09-8.48-1S35.23,36.08,35.24,36.73Z"/><path class="cls-115" d="M35.37,36.73c0,.63,3.76,1.08,8.38,1s8.35-.68,8.34-1.32-3.76-1.08-8.38-1S35.36,36.09,35.37,36.73Z"/><path class="cls-116" d="M35.5,36.72c0,.63,3.72,1.07,8.29,1S52.05,37,52,36.39s-3.72-1.07-8.29-1S35.49,36.09,35.5,36.72Z"/><path class="cls-117" d="M35.63,36.72c0,.63,3.68,1.06,8.2,1S52,37,52,36.39s-3.68-1-8.2-1S35.62,36.1,35.63,36.72Z"/><path class="cls-118" d="M35.76,36.72c0,.62,3.64,1.05,8.11,1S52,37,51.94,36.4s-3.64-1-8.11-1S35.75,36.1,35.76,36.72Z"/><path class="cls-119" d="M35.89,36.72c0,.61,3.6,1,8,.94s8-.65,8-1.26-3.59-1-8-.95S35.88,36.11,35.89,36.72Z"/><path class="cls-120" d="M36,36.72c0,.6,3.56,1,7.92.93s7.9-.65,7.89-1.25-3.55-1-7.92-.93S36,36.11,36,36.72Z"/><path class="cls-121" d="M36.15,36.72c0,.59,3.52,1,7.83.92s7.81-.64,7.8-1.24-3.52-1-7.83-.92S36.14,36.12,36.15,36.72Z"/><path class="cls-122" d="M36.28,36.72c0,.58,3.48,1,7.74.91s7.72-.64,7.71-1.23-3.48-1-7.74-.91S36.27,36.13,36.28,36.72Z"/><path class="cls-123" d="M36.41,36.71c0,.59,3.44,1,7.65.9s7.62-.62,7.62-1.2-3.44-1-7.65-.9S36.4,36.13,36.41,36.71Z"/><path class="cls-124" d="M36.54,36.71c0,.58,3.4,1,7.56.89s7.53-.62,7.52-1.19-3.39-1-7.55-.89S36.53,36.14,36.54,36.71Z"/><path class="cls-125" d="M36.67,36.71c0,.57,3.35,1,7.47.88s7.44-.61,7.43-1.18-3.35-1-7.46-.88S36.66,36.14,36.67,36.71Z"/><path class="cls-126" d="M36.8,36.71c0,.56,3.31.95,7.38.87s7.35-.6,7.34-1.17-3.31-.95-7.38-.87S36.79,36.15,36.8,36.71Z"/><path class="cls-127" d="M36.93,36.71c0,.55,3.27.94,7.29.86s7.26-.6,7.25-1.15-3.27-.94-7.29-.86S36.92,36.15,36.93,36.71Z"/><path class="cls-128" d="M37.06,36.71c0,.54,3.23.92,7.19.84s7.17-.58,7.16-1.13-3.22-.93-7.19-.85S37.05,36.16,37.06,36.71Z"/><path class="cls-129" d="M37.19,36.7c0,.54,3.19.92,7.1.84s7.08-.58,7.07-1.12-3.19-.92-7.1-.84S37.19,36.16,37.19,36.7Z"/><path class="cls-130" d="M37.32,36.7c0,.54,3.15.91,7,.83s7-.57,7-1.11-3.15-.9-7-.82S37.32,36.17,37.32,36.7Z"/><path class="cls-131" d="M37.45,36.7c0,.53,3.11.89,6.92.82s6.9-.57,6.89-1.1-3.11-.89-6.92-.81S37.45,36.17,37.45,36.7Z"/><path class="cls-132" d="M37.58,36.7c0,.52,3.07.88,6.83.8s6.8-.55,6.8-1.07-3.07-.88-6.83-.81S37.58,36.18,37.58,36.7Z"/><path class="cls-133" d="M37.71,36.7c0,.51,3,.87,6.74.79s6.71-.55,6.7-1.06-3-.87-6.73-.79S37.71,36.19,37.71,36.7Z"/><path class="cls-134" d="M37.85,36.7c0,.5,3,.85,6.64.78s6.62-.54,6.61-1-3-.86-6.64-.78S37.84,36.19,37.85,36.7Z"/><path class="cls-135" d="M38,36.69c0,.5,2.94.85,6.55.78s6.53-.54,6.52-1-2.94-.84-6.55-.77S38,36.2,38,36.69Z"/><path class="cls-136" d="M38.11,36.69c0,.5,2.9.84,6.46.77s6.44-.53,6.43-1-2.9-.84-6.46-.77S38.1,36.2,38.11,36.69Z"/><path class="cls-137" d="M38.24,36.69c0,.49,2.86.82,6.36.75s6.35-.52,6.35-1-2.86-.82-6.37-.75S38.23,36.21,38.24,36.69Z"/><path class="cls-138" d="M38.37,36.69c0,.48,2.81.81,6.27.74s6.26-.51,6.25-1-2.81-.81-6.27-.74S38.36,36.21,38.37,36.69Z"/><path class="cls-139" d="M38.5,36.69c0,.47,2.77.8,6.18.73s6.17-.51,6.16-1-2.78-.8-6.18-.73S38.49,36.22,38.5,36.69Z"/><path class="cls-140" d="M38.63,36.69c0,.46,2.73.78,6.09.72s6.08-.5,6.07-1-2.74-.78-6.1-.71S38.62,36.22,38.63,36.69Z"/><path class="cls-141" d="M38.76,36.69c0,.45,2.69.77,6,.7s6-.49,6-.94-2.7-.78-6-.71S38.75,36.23,38.76,36.69Z"/><path class="cls-142" d="M38.89,36.68c0,.46,2.65.77,5.91.7s5.89-.48,5.88-.93-2.65-.76-5.91-.7S38.88,36.23,38.89,36.68Z"/><path class="cls-143" d="M39,36.68c0,.45,2.61.75,5.82.69s5.8-.48,5.79-.92-2.61-.75-5.82-.69S39,36.24,39,36.68Z"/><path class="cls-144" d="M39.15,36.68c0,.44,2.57.74,5.73.68s5.71-.47,5.7-.91-2.57-.74-5.73-.67S39.14,36.25,39.15,36.68Z"/><path class="cls-145" d="M39.28,36.68c0,.43,2.53.73,5.64.67s5.62-.47,5.61-.89-2.53-.73-5.64-.67S39.27,36.25,39.28,36.68Z"/><path class="cls-146" d="M39.41,36.68c0,.42,2.49.71,5.55.65s5.52-.45,5.52-.87-2.49-.72-5.55-.66S39.4,36.26,39.41,36.68Z"/><path class="cls-147" d="M39.54,36.68c0,.41,2.45.7,5.45.64s5.44-.45,5.43-.86S48,35.76,45,35.82,39.53,36.26,39.54,36.68Z"/><path class="cls-148" d="M39.67,36.68c0,.4,2.41.69,5.36.63s5.35-.44,5.34-.85S48,35.77,45,35.83,39.66,36.27,39.67,36.68Z"/><path class="cls-149" d="M39.8,36.67c0,.41,2.37.68,5.27.63s5.26-.44,5.25-.84-2.37-.68-5.27-.62S39.79,36.27,39.8,36.67Z"/><path class="cls-150" d="M39.93,36.67c0,.4,2.33.67,5.18.61s5.16-.42,5.16-.81-2.33-.67-5.18-.62S39.92,36.28,39.93,36.67Z"/><path class="cls-151" d="M40.06,36.67c0,.39,2.28.66,5.09.6s5.07-.42,5.06-.8-2.28-.66-5.08-.6S40.05,36.28,40.06,36.67Z"/><path class="cls-152" d="M40.19,36.67c0,.38,2.24.64,5,.59s5-.41,5-.79-2.24-.64-5-.59S40.18,36.29,40.19,36.67Z"/><path class="cls-153" d="M40.32,36.67c0,.37,2.2.63,4.91.58s4.89-.4,4.88-.78-2.2-.63-4.9-.58S40.31,36.29,40.32,36.67Z"/><path class="cls-154" d="M40.45,36.67c0,.36,2.16.62,4.82.56s4.79-.39,4.79-.76-2.16-.62-4.82-.56S40.45,36.3,40.45,36.67Z"/><path class="cls-155" d="M40.58,36.67c0,.35,2.12.6,4.72.55S50,36.84,50,36.48s-2.12-.61-4.73-.56S40.58,36.31,40.58,36.67Z"/><path class="cls-156" d="M40.71,36.66c0,.36,2.08.6,4.63.55S50,36.83,50,36.48s-2.08-.6-4.63-.55S40.71,36.31,40.71,36.66Z"/><path class="cls-157" d="M40.84,36.66c0,.35,2,.59,4.54.54s4.53-.37,4.52-.72-2-.59-4.54-.54S40.84,36.32,40.84,36.66Z"/><path class="cls-158" d="M41,36.66c0,.34,2,.57,4.45.52s4.44-.36,4.43-.7-2-.57-4.45-.52S41,36.32,41,36.66Z"/><path class="cls-159" d="M41.1,36.66c0,.33,2,.56,4.36.51s4.34-.35,4.34-.69-2-.56-4.36-.51S41.1,36.33,41.1,36.66Z"/><path class="cls-160" d="M41.23,36.66c0,.32,1.92.55,4.27.5s4.25-.35,4.25-.67-1.92-.55-4.27-.51S41.23,36.33,41.23,36.66Z"/><path class="cls-161" d="M41.36,36.66c0,.31,1.88.53,4.18.49s4.16-.34,4.15-.66S47.82,36,45.52,36,41.36,36.34,41.36,36.66Z"/><path class="cls-162" d="M41.49,36.65c0,.32,1.84.53,4.09.49s4.07-.34,4.06-.65S47.81,36,45.56,36,41.49,36.34,41.49,36.65Z"/><path class="cls-163" d="M41.62,36.65c0,.31,1.8.52,4,.47s4-.32,4-.63S47.8,36,45.6,36,41.62,36.35,41.62,36.65Z"/><path class="cls-164" d="M41.75,36.65c0,.3,1.75.5,3.9.46s3.89-.32,3.89-.61S47.79,36,45.64,36,41.75,36.35,41.75,36.65Z"/><path class="cls-165" d="M41.88,36.65c0,.29,1.71.49,3.81.45s3.8-.31,3.8-.6-1.71-.49-3.81-.45S41.88,36.36,41.88,36.65Z"/><path class="cls-166" d="M42,36.65c0,.28,1.67.48,3.72.44s3.71-.31,3.7-.59-1.67-.48-3.71-.44S42,36.36,42,36.65Z"/><path class="cls-167" d="M42.14,36.65c0,.27,1.63.46,3.63.42s3.61-.29,3.61-.57-1.63-.47-3.63-.43S42.14,36.37,42.14,36.65Z"/><path class="cls-168" d="M42.28,36.64c0,.27,1.58.46,3.53.42s3.52-.29,3.52-.56-1.59-.45-3.54-.41S42.27,36.38,42.28,36.64Z"/><path class="cls-169" d="M42.41,36.64c0,.27,1.54.45,3.44.41s3.43-.28,3.43-.54-1.55-.45-3.45-.41S42.4,36.38,42.41,36.64Z"/><path class="cls-170" d="M42.54,36.64c0,.26,1.5.43,3.35.4s3.34-.28,3.33-.53-1.5-.43-3.35-.4S42.53,36.39,42.54,36.64Z"/><path class="cls-171" d="M42.67,36.64c0,.25,1.46.42,3.26.38s3.25-.26,3.24-.51-1.46-.42-3.26-.38S42.66,36.39,42.67,36.64Z"/><path class="cls-172" d="M42.8,36.64c0,.24,1.42.41,3.16.37s3.16-.26,3.16-.5S47.7,36.1,46,36.14,42.79,36.4,42.8,36.64Z"/><path class="cls-173" d="M42.93,36.64c0,.23,1.38.39,3.07.36s3.07-.25,3.07-.48-1.38-.4-3.08-.37S42.92,36.4,42.93,36.64Z"/><path class="cls-174" d="M43.06,36.64c0,.22,1.34.38,3,.35s3-.25,3-.47-1.35-.39-3-.36S43.05,36.41,43.06,36.64Z"/><path class="cls-175" d="M43.19,36.63c0,.22,1.3.38,2.89.35S49,36.74,49,36.52s-1.3-.37-2.89-.34S43.18,36.41,43.19,36.63Z"/></g><path class="cls-176" d="M20.27,25.66c4.58-2.16,9-2,9.8.42s-2.29,6.11-6.86,8.26-9.06,2-9.86-.39S15.64,27.83,20.27,25.66Z"/><g class="cls-177"><g class="cls-178"><rect class="cls-6" y="32.1" width="54.51" height="9.44"/><path class="cls-7" d="M50.63,37c0,1.72-10.13,2.91-22.55,2.66S5.6,37.77,5.63,36.06s10.12-2.91,22.55-2.66S50.66,35.24,50.63,37Z"/><path class="cls-7" d="M50.5,37c0,1.71-10.08,2.89-22.46,2.64S5.65,37.77,5.68,36.06s10.08-2.89,22.46-2.65S50.53,35.25,50.5,37Z"/><path class="cls-7" d="M50.37,37c0,1.7-10,2.88-22.37,2.63S5.71,37.77,5.73,36.06s10-2.88,22.37-2.63S50.4,35.25,50.37,37Z"/><path class="cls-7" d="M50.24,37c0,1.7-10,2.88-22.28,2.63S5.76,37.76,5.78,36.06s10-2.87,22.28-2.62S50.26,35.26,50.24,37Z"/><path class="cls-7" d="M50.11,37c0,1.69-10,2.86-22.19,2.62S5.81,37.76,5.84,36.07s10-2.86,22.18-2.62S50.13,35.27,50.11,37Z"/><path class="cls-7" d="M50,37c0,1.68-9.92,2.85-22.1,2.61s-22-1.81-22-3.49S15.81,33.22,28,33.46,50,35.27,50,37Z"/><path class="cls-7" d="M49.85,37c0,1.68-9.88,2.84-22,2.59S5.91,37.75,5.94,36.07s9.88-2.84,22-2.59S49.87,35.27,49.85,37Z"/><path class="cls-7" d="M49.72,37c0,1.67-9.84,2.82-21.91,2.58S6,37.74,6,36.07s9.84-2.82,21.91-2.58S49.74,35.28,49.72,37Z"/><path class="cls-8" d="M49.59,37c0,1.66-9.8,2.81-21.82,2.57S6,37.74,6.05,36.07s9.79-2.81,21.81-2.57S49.61,35.29,49.59,37Z"/><path class="cls-8" d="M49.46,37c0,1.65-9.76,2.8-21.73,2.56S6.07,37.73,6.1,36.08s9.75-2.8,21.73-2.56S49.48,35.29,49.46,37Z"/><path class="cls-8" d="M49.33,36.94c0,1.65-9.72,2.79-21.64,2.55S6.12,37.73,6.15,36.08s9.71-2.79,21.64-2.55S49.35,35.3,49.33,36.94Z"/><path class="cls-8" d="M49.2,36.94c0,1.64-9.68,2.78-21.55,2.54S6.18,37.72,6.2,36.08s9.67-2.78,21.55-2.54S49.22,35.3,49.2,36.94Z"/><path class="cls-8" d="M49.07,36.94c0,1.63-9.64,2.77-21.46,2.53S6.23,37.72,6.25,36.08s9.64-2.76,21.46-2.52S49.09,35.31,49.07,36.94Z"/><path class="cls-8" d="M48.93,36.94c0,1.63-9.59,2.75-21.36,2.52S6.28,37.71,6.31,36.09s9.59-2.76,21.36-2.52S49,35.31,48.93,36.94Z"/><path class="cls-8" d="M48.8,36.94c0,1.62-9.54,2.74-21.27,2.51S6.33,37.71,6.36,36.09s9.55-2.74,21.27-2.51S48.83,35.32,48.8,36.94Z"/><path class="cls-9" d="M48.67,36.94c0,1.61-9.5,2.73-21.17,2.49S6.38,37.7,6.41,36.09s9.51-2.73,21.18-2.5S48.7,35.32,48.67,36.94Z"/><path class="cls-9" d="M48.54,36.94c0,1.6-9.46,2.71-21.08,2.48s-21-1.72-21-3.33,9.47-2.72,21.09-2.48S48.57,35.33,48.54,36.94Z"/><path class="cls-9" d="M48.41,36.93c0,1.6-9.42,2.71-21,2.48S6.49,37.69,6.52,36.09s9.42-2.7,21-2.47S48.44,35.34,48.41,36.93Z"/><path class="cls-9" d="M48.28,36.93c0,1.59-9.38,2.7-20.9,2.47S6.54,37.69,6.57,36.1s9.38-2.7,20.9-2.47S48.31,35.34,48.28,36.93Z"/><path class="cls-10" d="M48.15,36.93c0,1.59-9.34,2.68-20.81,2.45S6.59,37.68,6.62,36.1,16,33.42,27.43,33.65,48.18,35.35,48.15,36.93Z"/><path class="cls-10" d="M48,36.93c0,1.58-9.3,2.67-20.72,2.44S6.65,37.68,6.67,36.1s9.3-2.67,20.72-2.44S48.05,35.35,48,36.93Z"/><path class="cls-10" d="M47.89,36.93c0,1.57-9.26,2.66-20.63,2.43S6.7,37.67,6.72,36.1,16,33.44,27.35,33.67,47.92,35.36,47.89,36.93Z"/><path class="cls-10" d="M47.76,36.93c0,1.56-9.22,2.64-20.54,2.42S6.75,37.67,6.78,36.1,16,33.46,27.31,33.68,47.79,35.36,47.76,36.93Z"/><path class="cls-11" d="M47.63,36.93c0,1.55-9.18,2.63-20.45,2.4S6.8,37.66,6.83,36.11,16,33.47,27.28,33.7,47.66,35.37,47.63,36.93Z"/><path class="cls-11" d="M47.5,36.92c0,1.55-9.14,2.63-20.35,2.4S6.85,37.66,6.88,36.11s9.14-2.63,20.36-2.4S47.53,35.37,47.5,36.92Z"/><path class="cls-11" d="M47.37,36.92c0,1.55-9.1,2.61-20.26,2.39s-20.2-1.66-20.18-3.2S16,33.5,27.2,33.72,47.4,35.38,47.37,36.92Z"/><path class="cls-11" d="M47.24,36.92c0,1.54-9.06,2.6-20.17,2.38S7,37.65,7,36.11s9.06-2.6,20.18-2.37S47.27,35.38,47.24,36.92Z"/><path class="cls-12" d="M47.11,36.92c0,1.53-9,2.59-20.08,2.37S7,37.64,7,36.12s9-2.59,20.08-2.37S47.14,35.39,47.11,36.92Z"/><path class="cls-12" d="M47,36.92c0,1.52-9,2.57-20,2.35S7.06,37.64,7.09,36.12s9-2.58,20-2.36S47,35.4,47,36.92Z"/><path class="cls-12" d="M46.85,36.92c0,1.51-8.93,2.56-19.9,2.34S7.12,37.64,7.14,36.12s8.93-2.56,19.9-2.35S46.87,35.4,46.85,36.92Z"/><path class="cls-13" d="M46.72,36.91c0,1.51-8.89,2.56-19.81,2.34S7.17,37.63,7.19,36.12s8.9-2.55,19.81-2.33S46.74,35.41,46.72,36.91Z"/><path class="cls-13" d="M46.59,36.91c0,1.5-8.85,2.54-19.72,2.33S7.22,37.63,7.25,36.12,16.1,33.58,27,33.8,46.61,35.41,46.59,36.91Z"/><path class="cls-14" d="M46.46,36.91c0,1.5-8.81,2.53-19.63,2.31S7.27,37.62,7.3,36.13s8.81-2.53,19.62-2.32S46.48,35.42,46.46,36.91Z"/><path class="cls-14" d="M46.33,36.91c0,1.49-8.77,2.52-19.53,2.3S7.33,37.62,7.35,36.13s8.77-2.52,19.53-2.3S46.35,35.42,46.33,36.91Z"/><path class="cls-14" d="M46.2,36.91c0,1.48-8.73,2.5-19.44,2.29S7.38,37.61,7.4,36.13s8.73-2.5,19.44-2.29S46.22,35.43,46.2,36.91Z"/><path class="cls-15" d="M46.07,36.91c0,1.47-8.69,2.49-19.35,2.28S7.43,37.61,7.45,36.13s8.69-2.49,19.35-2.28S46.09,35.43,46.07,36.91Z"/><path class="cls-15" d="M45.94,36.9c0,1.47-8.65,2.49-19.26,2.28s-19.2-1.58-19.17-3,8.64-2.49,19.25-2.28S46,35.44,45.94,36.9Z"/><path class="cls-16" d="M45.81,36.9c0,1.46-8.61,2.48-19.17,2.26s-19.11-1.56-19.08-3,8.6-2.47,19.17-2.26S45.83,35.44,45.81,36.9Z"/><path class="cls-16" d="M45.68,36.9c0,1.45-8.57,2.46-19.08,2.25s-19-1.56-19-3,8.56-2.46,19.08-2.25S45.7,35.45,45.68,36.9Z"/><path class="cls-16" d="M45.55,36.9c0,1.45-8.53,2.45-19,2.24s-18.92-1.55-18.9-3,8.53-2.45,19-2.24S45.57,35.46,45.55,36.9Z"/><path class="cls-17" d="M45.42,36.9c0,1.44-8.48,2.44-18.9,2.23s-18.83-1.55-18.81-3,8.49-2.43,18.9-2.22S45.44,35.46,45.42,36.9Z"/><path class="cls-17" d="M45.29,36.9c0,1.43-8.44,2.42-18.8,2.21s-18.75-1.53-18.72-3,8.44-2.43,18.8-2.22S45.31,35.47,45.29,36.9Z"/><path class="cls-18" d="M45.16,36.9c0,1.42-8.4,2.41-18.71,2.2s-18.65-1.53-18.63-3,8.4-2.41,18.71-2.21S45.18,35.47,45.16,36.9Z"/><path class="cls-18" d="M45,36.89c0,1.42-8.36,2.41-18.62,2.2S7.85,37.57,7.87,36.15s8.36-2.4,18.62-2.19S45.05,35.48,45,36.89Z"/><path class="cls-19" d="M44.9,36.89c0,1.41-8.32,2.39-18.53,2.19S7.9,37.56,7.92,36.15,16.24,33.76,26.45,34,44.92,35.48,44.9,36.89Z"/><path class="cls-19" d="M44.77,36.89c0,1.41-8.28,2.38-18.44,2.17S8,37.56,8,36.15,16.25,33.78,26.41,34,44.79,35.49,44.77,36.89Z"/><path class="cls-20" d="M44.64,36.89c0,1.4-8.24,2.37-18.35,2.16S8,37.55,8,36.16,16.26,33.79,26.37,34,44.66,35.49,44.64,36.89Z"/><path class="cls-20" d="M44.51,36.89c0,1.39-8.2,2.35-18.26,2.15S8.06,37.55,8.08,36.16,16.27,33.81,26.33,34,44.53,35.5,44.51,36.89Z"/><path class="cls-21" d="M44.38,36.89c0,1.38-8.16,2.34-18.17,2.14S8.11,37.54,8.13,36.16,16.29,33.82,26.29,34,44.4,35.5,44.38,36.89Z"/><path class="cls-21" d="M44.25,36.89c0,1.37-8.12,2.33-18.08,2.13s-18-1.48-18-2.86S16.3,33.83,26.25,34,44.27,35.51,44.25,36.89Z"/><path class="cls-22" d="M44.12,36.88c0,1.37-8.08,2.32-18,2.12S8.21,37.53,8.24,36.17s8.07-2.32,18-2.12S44.14,35.52,44.12,36.88Z"/><path class="cls-22" d="M44,36.88c0,1.36-8,2.31-17.88,2.11S8.27,37.53,8.29,36.17s8-2.31,17.89-2.11S44,35.52,44,36.88Z"/><path class="cls-23" d="M43.85,36.88c0,1.36-8,2.29-17.79,2.1S8.32,37.52,8.34,36.17s8-2.29,17.8-2.1S43.88,35.53,43.85,36.88Z"/><path class="cls-24" d="M43.72,36.88c0,1.35-7.94,2.28-17.7,2.09S8.37,37.52,8.39,36.17s8-2.28,17.71-2.08S43.75,35.53,43.72,36.88Z"/><path class="cls-24" d="M43.59,36.88c0,1.34-7.9,2.27-17.61,2.07S8.42,37.51,8.45,36.17s7.9-2.27,17.61-2.07S43.62,35.54,43.59,36.88Z"/><path class="cls-25" d="M43.46,36.88c0,1.33-7.86,2.26-17.52,2.06S8.48,37.51,8.5,36.18,16.36,33.92,26,34.11,43.49,35.54,43.46,36.88Z"/><path class="cls-25" d="M43.33,36.88c0,1.32-7.82,2.24-17.43,2S8.53,37.51,8.55,36.18,16.37,33.93,26,34.12,43.35,35.55,43.33,36.88Z"/><path class="cls-26" d="M43.2,36.87c0,1.32-7.78,2.24-17.34,2.05S8.58,37.5,8.6,36.18s7.79-2.24,17.34-2S43.22,35.55,43.2,36.87Z"/><path class="cls-27" d="M43.07,36.87c0,1.31-7.74,2.23-17.24,2S8.63,37.49,8.65,36.18s7.75-2.22,17.25-2S43.09,35.56,43.07,36.87Z"/><path class="cls-27" d="M42.94,36.87c0,1.31-7.7,2.21-17.15,2S8.68,37.49,8.71,36.18s7.7-2.21,17.15-2S43,35.56,42.94,36.87Z"/><path class="cls-28" d="M42.81,36.87c0,1.3-7.66,2.2-17.06,2s-17-1.39-17-2.69,7.66-2.2,17.06-2S42.83,35.57,42.81,36.87Z"/><path class="cls-28" d="M42.68,36.87c0,1.29-7.62,2.19-17,2S8.79,37.48,8.81,36.19s7.62-2.19,17-2S42.7,35.57,42.68,36.87Z"/><path class="cls-29" d="M42.55,36.87c0,1.28-7.58,2.17-16.88,2S8.84,37.48,8.86,36.19s7.58-2.17,16.88-2S42.57,35.58,42.55,36.87Z"/><path class="cls-30" d="M42.42,36.86c0,1.28-7.54,2.17-16.79,2S8.89,37.47,8.91,36.19s7.54-2.16,16.8-2S42.44,35.59,42.42,36.86Z"/><path class="cls-30" d="M42.29,36.86c0,1.27-7.5,2.16-16.7,2S9,37.47,9,36.19s7.49-2.15,16.7-2S42.31,35.59,42.29,36.86Z"/><path class="cls-31" d="M42.16,36.86c0,1.27-7.45,2.14-16.61,2S9,37.46,9,36.2s7.45-2.14,16.61-2S42.18,35.6,42.16,36.86Z"/><path class="cls-32" d="M42,36.86c0,1.26-7.41,2.13-16.52,2S9.05,37.46,9.07,36.2s7.42-2.13,16.52-2S42.05,35.6,42,36.86Z"/><path class="cls-32" d="M41.9,36.86c0,1.25-7.37,2.12-16.42,1.93S9.1,37.45,9.12,36.2s7.38-2.12,16.43-1.93S41.92,35.61,41.9,36.86Z"/><path class="cls-33" d="M41.77,36.86c0,1.24-7.33,2.1-16.33,1.92S9.16,37.45,9.18,36.2s7.33-2.1,16.33-1.92S41.79,35.61,41.77,36.86Z"/><path class="cls-34" d="M41.64,36.86c0,1.23-7.29,2.09-16.24,1.91S9.21,37.44,9.23,36.21s7.29-2.1,16.24-1.92S41.66,35.62,41.64,36.86Z"/><path class="cls-35" d="M41.51,36.85c0,1.23-7.25,2.09-16.15,1.91S9.26,37.44,9.28,36.21s7.25-2.08,16.15-1.91S41.53,35.62,41.51,36.85Z"/><path class="cls-35" d="M41.38,36.85c0,1.23-7.21,2.07-16.06,1.9s-16-1.32-16-2.54,7.21-2.07,16.06-1.89S41.4,35.63,41.38,36.85Z"/><path class="cls-36" d="M41.25,36.85c0,1.22-7.17,2.06-16,1.88s-15.92-1.3-15.9-2.52,7.17-2.06,16-1.88S41.27,35.64,41.25,36.85Z"/><path class="cls-37" d="M41.12,36.85c0,1.21-7.13,2-15.88,1.87s-15.82-1.3-15.8-2.51,7.12-2,15.87-1.87S41.14,35.64,41.12,36.85Z"/><path class="cls-38" d="M41,36.85c0,1.2-7.09,2-15.79,1.86S9.47,37.42,9.49,36.22s7.08-2,15.78-1.86S41,35.65,41,36.85Z"/><path class="cls-38" d="M40.86,36.85c0,1.19-7,2-15.7,1.85S9.52,37.41,9.54,36.22s7.05-2,15.69-1.85S40.88,35.65,40.86,36.85Z"/><path class="cls-39" d="M40.73,36.85c0,1.18-7,2-15.6,1.83S9.57,37.41,9.59,36.22s7-2,15.6-1.84S40.75,35.66,40.73,36.85Z"/><path class="cls-40" d="M40.6,36.84c0,1.18-7,2-15.51,1.83S9.63,37.4,9.64,36.22s7-2,15.52-1.83S40.62,35.66,40.6,36.84Z"/><path class="cls-41" d="M40.47,36.84c0,1.18-6.93,2-15.42,1.82S9.68,37.4,9.7,36.23s6.92-2,15.42-1.82S40.49,35.67,40.47,36.84Z"/><path class="cls-41" d="M40.34,36.84c0,1.17-6.88,2-15.33,1.81S9.73,37.39,9.75,36.23s6.88-2,15.33-1.81S40.36,35.67,40.34,36.84Z"/><path class="cls-42" d="M40.21,36.84c0,1.16-6.84,2-15.24,1.8S9.78,37.39,9.8,36.23s6.84-2,15.24-1.8S40.23,35.68,40.21,36.84Z"/><path class="cls-43" d="M40.08,36.84c0,1.15-6.8,1.95-15.15,1.78S9.83,37.39,9.85,36.23s6.8-1.95,15.15-1.78S40.09,35.68,40.08,36.84Z"/><path class="cls-44" d="M40,36.84c0,1.14-6.76,1.94-15.06,1.77s-15-1.23-15-2.38S16.66,34.29,25,34.46,40,35.69,40,36.84Z"/><path class="cls-45" d="M39.82,36.83c0,1.14-6.72,1.93-15,1.77S9.94,37.38,10,36.24s6.71-1.93,15-1.77S39.83,35.7,39.82,36.83Z"/><path class="cls-46" d="M39.69,36.83c0,1.14-6.68,1.92-14.88,1.76S10,37.37,10,36.24s6.68-1.92,14.87-1.75S39.7,35.7,39.69,36.83Z"/><path class="cls-46" d="M39.56,36.83c0,1.13-6.64,1.91-14.78,1.74S10,37.36,10.06,36.24s6.64-1.9,14.78-1.74S39.57,35.71,39.56,36.83Z"/><path class="cls-47" d="M39.42,36.83c0,1.12-6.59,1.89-14.68,1.73s-14.64-1.2-14.63-2.32,6.6-1.89,14.69-1.73S39.44,35.71,39.42,36.83Z"/><path class="cls-48" d="M39.29,36.83c0,1.11-6.55,1.88-14.59,1.72s-14.55-1.19-14.53-2.31,6.55-1.88,14.59-1.72S39.31,35.72,39.29,36.83Z"/><path class="cls-49" d="M39.16,36.83c0,1.1-6.51,1.87-14.5,1.71S10.2,37.35,10.22,36.25s6.51-1.87,14.5-1.71S39.18,35.72,39.16,36.83Z"/><path class="cls-50" d="M39,36.83c0,1.09-6.47,1.85-14.41,1.69s-14.37-1.17-14.35-2.27,6.47-1.86,14.41-1.7S39.05,35.73,39,36.83Z"/><path class="cls-51" d="M38.9,36.82c0,1.09-6.43,1.85-14.32,1.69s-14.27-1.17-14.26-2.26,6.43-1.85,14.32-1.69S38.92,35.73,38.9,36.82Z"/><path class="cls-52" d="M38.77,36.82c0,1.09-6.39,1.84-14.23,1.68s-14.18-1.16-14.17-2.25,6.39-1.83,14.24-1.67S38.79,35.74,38.77,36.82Z"/><path class="cls-53" d="M38.64,36.82c0,1.08-6.34,1.82-14.14,1.67s-14.09-1.16-14.07-2.23,6.34-1.83,14.14-1.67S38.66,35.74,38.64,36.82Z"/><path class="cls-53" d="M38.51,36.82c0,1.07-6.3,1.81-14,1.66s-14-1.15-14-2.22,6.31-1.81,14.05-1.66S38.53,35.75,38.51,36.82Z"/><path class="cls-54" d="M38.38,36.82c0,1.06-6.26,1.8-14,1.64s-13.92-1.14-13.9-2.2,6.27-1.8,14-1.65S38.4,35.76,38.38,36.82Z"/><path class="cls-55" d="M38.25,36.82c0,1-6.22,1.78-13.86,1.63s-13.82-1.13-13.81-2.19,6.23-1.78,13.87-1.63S38.27,35.76,38.25,36.82Z"/><path class="cls-56" d="M38.12,36.81c0,1-6.18,1.78-13.77,1.63s-13.73-1.13-13.71-2.18,6.18-1.77,13.77-1.62S38.14,35.77,38.12,36.81Z"/><path class="cls-57" d="M38,36.81c0,1-6.14,1.77-13.68,1.62s-13.64-1.12-13.62-2.16,6.14-1.77,13.68-1.62S38,35.77,38,36.81Z"/><path class="cls-58" d="M37.86,36.81c0,1-6.1,1.75-13.59,1.6S10.72,37.3,10.74,36.27s6.1-1.75,13.59-1.6S37.88,35.78,37.86,36.81Z"/><path class="cls-59" d="M37.73,36.81c0,1-6.06,1.74-13.5,1.59s-13.45-1.1-13.44-2.13,6.06-1.74,13.5-1.59S37.75,35.78,37.73,36.81Z"/><path class="cls-60" d="M37.6,36.81c0,1-6,1.73-13.41,1.58s-13.36-1.1-13.35-2.12,6-1.73,13.41-1.58S37.62,35.79,37.6,36.81Z"/><path class="cls-61" d="M37.47,36.81c0,1-6,1.71-13.32,1.57S10.88,37.29,10.9,36.27s6-1.71,13.31-1.56S37.49,35.79,37.47,36.81Z"/><path class="cls-62" d="M37.34,36.81c0,1-5.94,1.7-13.22,1.55S10.93,37.28,11,36.28s5.94-1.71,13.22-1.56S37.36,35.8,37.34,36.81Z"/><path class="cls-63" d="M37.21,36.8c0,1-5.9,1.7-13.13,1.55S11,37.28,11,36.28s5.9-1.69,13.13-1.55S37.23,35.8,37.21,36.8Z"/><path class="cls-64" d="M37.08,36.8c0,1-5.86,1.68-13,1.54s-13-1.07-13-2.06,5.86-1.68,13.05-1.54S37.1,35.81,37.08,36.8Z"/><path class="cls-65" d="M37,36.8c0,1-5.81,1.67-13,1.53s-12.91-1.06-12.9-2,5.82-1.67,13-1.52S37,35.82,37,36.8Z"/><path class="cls-66" d="M36.82,36.8c0,1-5.77,1.66-12.86,1.51s-12.82-1.05-12.8-2S16.93,34.63,24,34.77,36.83,35.82,36.82,36.8Z"/><path class="cls-67" d="M36.69,36.8c0,1-5.73,1.64-12.77,1.5s-12.73-1-12.71-2S16.94,34.64,24,34.78,36.71,35.83,36.69,36.8Z"/><path class="cls-68" d="M36.56,36.8c0,1-5.69,1.63-12.68,1.49s-12.63-1-12.62-2S17,34.66,23.94,34.8,36.57,35.83,36.56,36.8Z"/><path class="cls-69" d="M36.43,36.8c0,1-5.65,1.62-12.59,1.48s-12.54-1-12.53-2S17,34.67,23.9,34.81,36.44,35.84,36.43,36.8Z"/><path class="cls-70" d="M36.3,36.79c0,1-5.61,1.61-12.5,1.48s-12.45-1-12.43-2,5.6-1.61,12.49-1.47S36.31,35.84,36.3,36.79Z"/><path class="cls-71" d="M36.17,36.79c0,1-5.57,1.6-12.4,1.46s-12.37-1-12.35-2,5.57-1.6,12.4-1.47S36.18,35.85,36.17,36.79Z"/><path class="cls-72" d="M36,36.79c0,.94-5.53,1.59-12.31,1.45s-12.27-1-12.26-1.94S17,34.71,23.78,34.85,36.05,35.85,36,36.79Z"/><path class="cls-73" d="M35.91,36.79c0,.93-5.49,1.57-12.22,1.44s-12.18-1-12.17-1.93S17,34.73,23.74,34.86,35.92,35.86,35.91,36.79Z"/><path class="cls-74" d="M35.78,36.79c0,.92-5.45,1.56-12.13,1.43s-12.09-1-12.08-1.92S17,34.74,23.7,34.87,35.79,35.86,35.78,36.79Z"/><path class="cls-75" d="M35.65,36.79c0,.91-5.41,1.55-12,1.41s-12-1-12-1.9,5.4-1.55,12-1.41S35.66,35.87,35.65,36.79Z"/><path class="cls-76" d="M35.52,36.79c0,.9-5.37,1.53-12,1.4s-11.91-1-11.89-1.88S17,34.77,23.62,34.9,35.53,35.88,35.52,36.79Z"/><path class="cls-77" d="M35.39,36.78c0,.91-5.33,1.53-11.86,1.4s-11.81-1-11.8-1.87,5.32-1.53,11.85-1.4S35.4,35.88,35.39,36.78Z"/><path class="cls-78" d="M35.26,36.78c0,.9-5.28,1.52-11.77,1.39s-11.72-1-11.71-1.86,5.28-1.51,11.77-1.38S35.27,35.89,35.26,36.78Z"/><path class="cls-79" d="M35.13,36.78c0,.89-5.24,1.51-11.68,1.38s-11.63-1-11.61-1.85,5.23-1.5,11.67-1.37S35.14,35.89,35.13,36.78Z"/><path class="cls-80" d="M35,36.78c0,.88-5.2,1.49-11.58,1.36s-11.55-.94-11.53-1.82,5.2-1.5,11.58-1.37S35,35.9,35,36.78Z"/><path class="cls-81" d="M34.87,36.78c0,.87-5.16,1.48-11.49,1.35s-11.45-.94-11.44-1.81S17.1,34.84,23.43,35,34.88,35.9,34.87,36.78Z"/><path class="cls-82" d="M34.73,36.78c0,.86-5.11,1.47-11.39,1.34S12,37.19,12,36.32s5.12-1.47,11.4-1.34S34.75,35.91,34.73,36.78Z"/><path class="cls-83" d="M34.6,36.77c0,.87-5.07,1.46-11.3,1.34S12,37.18,12,36.32,17.12,34.86,23.35,35,34.62,35.91,34.6,36.77Z"/><path class="cls-84" d="M34.47,36.77c0,.86-5,1.45-11.21,1.32s-11.18-.91-11.16-1.77,5-1.44,11.21-1.32S34.49,35.92,34.47,36.77Z"/><path class="cls-85" d="M34.34,36.77c0,.85-5,1.44-11.12,1.31s-11.09-.91-11.07-1.75,5-1.44,11.12-1.31S34.36,35.93,34.34,36.77Z"/><path class="cls-86" d="M34.21,36.77c0,.84-4.95,1.42-11,1.3s-11-.9-11-1.74,4.95-1.42,11-1.3S34.23,35.93,34.21,36.77Z"/><path class="cls-87" d="M34.08,36.77c0,.83-4.91,1.41-10.94,1.29s-10.9-.9-10.89-1.73S17.16,34.92,23.19,35,34.1,35.93,34.08,36.77Z"/><path class="cls-88" d="M34,36.77c0,.82-4.87,1.4-10.85,1.28s-10.81-.89-10.8-1.72,4.87-1.4,10.85-1.27S34,35.94,34,36.77Z"/><path class="cls-89" d="M33.82,36.77c0,.81-4.83,1.38-10.75,1.26s-10.73-.88-10.71-1.69S17.19,35,23.11,35.07,33.84,36,33.82,36.77Z"/><path class="cls-90" d="M33.69,36.76c0,.82-4.79,1.38-10.66,1.26s-10.63-.87-10.62-1.68S17.2,35,23.07,35.08,33.71,36,33.69,36.76Z"/><path class="cls-91" d="M33.56,36.76c0,.81-4.74,1.37-10.57,1.25s-10.54-.87-10.53-1.67S17.21,35,23,35.09,33.58,36,33.56,36.76Z"/><path class="cls-92" d="M33.43,36.76c0,.8-4.7,1.35-10.48,1.24s-10.45-.86-10.44-1.66S17.22,35,23,35.11,33.44,36,33.43,36.76Z"/><path class="cls-93" d="M33.3,36.76c0,.79-4.66,1.34-10.39,1.22s-10.36-.85-10.34-1.64S17.23,35,23,35.12,33.31,36,33.3,36.76Z"/><path class="cls-94" d="M33.17,36.76c0,.78-4.62,1.33-10.3,1.21s-10.27-.84-10.25-1.62,4.62-1.33,10.3-1.22S33.18,36,33.17,36.76Z"/><path class="cls-95" d="M33,36.76c0,.77-4.58,1.31-10.21,1.2s-10.17-.83-10.16-1.61S17.25,35,22.88,35.14,33.05,36,33,36.76Z"/><path class="cls-96" d="M32.91,36.75c0,.77-4.54,1.31-10.12,1.2s-10.08-.83-10.07-1.6,4.54-1.3,10.12-1.19S32.92,36,32.91,36.75Z"/><path class="cls-97" d="M32.78,36.75c0,.77-4.5,1.3-10,1.18s-10-.81-10-1.58,4.5-1.29,10-1.18S32.79,36,32.78,36.75Z"/><path class="cls-98" d="M32.65,36.75c0,.76-4.46,1.28-9.93,1.17s-9.91-.81-9.89-1.57,4.46-1.28,9.93-1.17S32.66,36,32.65,36.75Z"/><path class="cls-99" d="M32.52,36.75c0,.75-4.42,1.27-9.84,1.16s-9.81-.8-9.8-1.55,4.42-1.27,9.84-1.16S32.53,36,32.52,36.75Z"/><path class="cls-100" d="M32.39,36.75c0,.74-4.38,1.26-9.75,1.15s-9.72-.8-9.71-1.54,4.38-1.26,9.75-1.15S32.4,36,32.39,36.75Z"/><path class="cls-101" d="M32.26,36.75c0,.73-4.34,1.24-9.66,1.14S13,37.1,13,36.36s4.34-1.24,9.66-1.14S32.27,36,32.26,36.75Z"/><path class="cls-102" d="M32.13,36.75c0,.72-4.3,1.23-9.57,1.12S13,37.09,13,36.36s4.3-1.23,9.57-1.13S32.14,36,32.13,36.75Z"/><path class="cls-103" d="M32,36.74c0,.73-4.26,1.23-9.48,1.12s-9.44-.77-9.43-1.49,4.25-1.23,9.47-1.12S32,36,32,36.74Z"/><path class="cls-104" d="M31.87,36.74c0,.72-4.21,1.21-9.39,1.11s-9.35-.77-9.34-1.48,4.21-1.21,9.38-1.11S31.88,36,31.87,36.74Z"/><path class="cls-105" d="M31.74,36.74c0,.71-4.17,1.2-9.3,1.1s-9.26-.76-9.25-1.47,4.17-1.2,9.3-1.1S31.75,36,31.74,36.74Z"/><path class="cls-106" d="M31.61,36.74c0,.7-4.13,1.19-9.2,1.08s-9.18-.75-9.17-1.45,4.13-1.18,9.21-1.08S31.62,36,31.61,36.74Z"/><path class="cls-107" d="M31.48,36.74c0,.69-4.09,1.17-9.11,1.07s-9.09-.74-9.07-1.44,4.09-1.17,9.11-1.07S31.49,36,31.48,36.74Z"/><path class="cls-108" d="M31.35,36.74c0,.68-4.05,1.16-9,1.06s-9-.74-9-1.42,4-1.17,9-1.07S31.36,36.05,31.35,36.74Z"/><path class="cls-109" d="M31.22,36.74c0,.68-4,1.15-8.93,1s-8.9-.73-8.89-1.41,4-1.15,8.93-1.05S31.23,36.06,31.22,36.74Z"/><path class="cls-110" d="M31.09,36.73c0,.68-4,1.14-8.84,1s-8.81-.72-8.8-1.39,4-1.14,8.84-1S31.1,36.06,31.09,36.73Z"/><path class="cls-111" d="M31,36.73c0,.67-3.93,1.13-8.75,1s-8.72-.71-8.71-1.38,3.93-1.12,8.75-1S31,36.07,31,36.73Z"/><path class="cls-112" d="M30.83,36.73c0,.66-3.89,1.12-8.66,1s-8.62-.71-8.61-1.36,3.88-1.12,8.65-1S30.84,36.07,30.83,36.73Z"/><path class="cls-113" d="M30.7,36.73c0,.65-3.85,1.1-8.57,1s-8.53-.7-8.52-1.35,3.84-1.11,8.56-1S30.71,36.08,30.7,36.73Z"/><path class="cls-114" d="M30.57,36.73c0,.64-3.81,1.09-8.48,1s-8.44-.7-8.43-1.34,3.8-1.09,8.47-1S30.58,36.08,30.57,36.73Z"/><path class="cls-115" d="M30.44,36.73c0,.63-3.77,1.08-8.38,1S13.7,37,13.71,36.39s3.77-1.08,8.38-1S30.45,36.09,30.44,36.73Z"/><path class="cls-116" d="M30.31,36.73c0,.63-3.73,1.06-8.29,1s-8.27-.68-8.25-1.31,3.72-1.07,8.28-1S30.32,36.09,30.31,36.73Z"/><path class="cls-117" d="M30.17,36.72c0,.63-3.67,1.06-8.19,1s-8.17-.67-8.16-1.3,3.68-1,8.19-1S30.18,36.1,30.17,36.72Z"/><path class="cls-118" d="M30,36.72c0,.62-3.63,1.05-8.1,1S13.86,37,13.87,36.4s3.64-1,8.11-1S30.05,36.1,30,36.72Z"/><path class="cls-119" d="M29.91,36.72c0,.61-3.59,1-8,.94s-8-.65-8-1.26,3.6-1,8-.94S29.92,36.11,29.91,36.72Z"/><path class="cls-120" d="M29.78,36.72c0,.6-3.55,1-7.92.93S14,37,14,36.4s3.56-1,7.93-.93S29.79,36.12,29.78,36.72Z"/><path class="cls-121" d="M29.65,36.72c0,.59-3.51,1-7.83.92S14,37,14,36.4s3.51-1,7.83-.92S29.66,36.12,29.65,36.72Z"/><path class="cls-122" d="M29.52,36.72c0,.59-3.47,1-7.74.91s-7.71-.63-7.7-1.22,3.47-1,7.74-.92S29.53,36.13,29.52,36.72Z"/><path class="cls-123" d="M29.39,36.71c0,.59-3.43,1-7.65.91s-7.62-.63-7.61-1.21,3.43-1,7.65-.9S29.4,36.13,29.39,36.71Z"/><path class="cls-124" d="M29.26,36.71c0,.58-3.39,1-7.55.89s-7.54-.61-7.53-1.19,3.4-1,7.56-.89S29.27,36.14,29.26,36.71Z"/><path class="cls-125" d="M29.13,36.71c0,.57-3.35,1-7.46.88s-7.44-.61-7.44-1.18,3.36-1,7.47-.88S29.14,36.14,29.13,36.71Z"/><path class="cls-126" d="M29,36.71c0,.56-3.31.95-7.37.87s-7.35-.6-7.34-1.17,3.31-.95,7.37-.86S29,36.15,29,36.71Z"/><path class="cls-127" d="M28.87,36.71c0,.55-3.27.94-7.28.86s-7.26-.6-7.25-1.15,3.27-.94,7.28-.86S28.88,36.15,28.87,36.71Z"/><path class="cls-128" d="M28.74,36.71c0,.54-3.23.92-7.19.84s-7.17-.58-7.16-1.13,3.23-.93,7.19-.85S28.75,36.16,28.74,36.71Z"/><path class="cls-129" d="M28.61,36.7c0,.55-3.19.92-7.1.84s-7.08-.58-7.07-1.12,3.19-.91,7.1-.84S28.62,36.16,28.61,36.7Z"/><path class="cls-130" d="M28.48,36.7c0,.54-3.14.91-7,.83s-7-.57-7-1.11,3.14-.9,7-.82S28.49,36.17,28.48,36.7Z"/><path class="cls-131" d="M28.35,36.7c0,.53-3.1.89-6.92.82s-6.89-.57-6.88-1.09,3.1-.9,6.91-.82S28.36,36.18,28.35,36.7Z"/><path class="cls-132" d="M28.22,36.7c0,.52-3.06.88-6.82.81s-6.81-.56-6.8-1.08,3.06-.88,6.83-.81S28.23,36.18,28.22,36.7Z"/><path class="cls-133" d="M28.09,36.7c0,.51-3,.87-6.73.79s-6.72-.55-6.71-1.06,3-.87,6.74-.79S28.1,36.19,28.09,36.7Z"/><path class="cls-134" d="M28,36.7c0,.5-3,.85-6.64.78s-6.62-.54-6.62-1,3-.85,6.65-.78S28,36.19,28,36.7Z"/><path class="cls-135" d="M27.83,36.7c0,.49-2.94.84-6.55.77s-6.53-.54-6.52-1,2.94-.84,6.55-.77S27.84,36.2,27.83,36.7Z"/><path class="cls-136" d="M27.7,36.69c0,.5-2.9.84-6.46.77s-6.44-.53-6.43-1,2.9-.84,6.46-.76S27.71,36.2,27.7,36.69Z"/><path class="cls-137" d="M27.57,36.69c0,.49-2.86.82-6.37.75s-6.35-.52-6.34-1,2.86-.82,6.37-.75S27.58,36.21,27.57,36.69Z"/><path class="cls-138" d="M27.44,36.69c0,.48-2.82.81-6.28.74s-6.25-.51-6.25-1,2.82-.81,6.28-.74S27.45,36.21,27.44,36.69Z"/><path class="cls-139" d="M27.31,36.69c0,.47-2.78.8-6.19.73s-6.16-.51-6.15-1,2.77-.79,6.18-.73S27.32,36.22,27.31,36.69Z"/><path class="cls-140" d="M27.18,36.69c0,.46-2.74.78-6.1.72s-6.07-.5-6.06-1,2.73-.78,6.09-.71S27.19,36.23,27.18,36.69Z"/><path class="cls-141" d="M27.05,36.69c0,.45-2.7.77-6,.7s-6-.49-6-.94,2.69-.78,6-.71S27.06,36.23,27.05,36.69Z"/><path class="cls-142" d="M26.92,36.69c0,.45-2.66.76-5.91.69s-5.9-.48-5.89-.93,2.66-.76,5.91-.7S26.93,36.24,26.92,36.69Z"/><path class="cls-143" d="M26.79,36.68c0,.45-2.61.75-5.82.69s-5.8-.48-5.8-.92,2.62-.75,5.82-.68S26.8,36.24,26.79,36.68Z"/><path class="cls-144" d="M26.66,36.68c0,.44-2.57.74-5.73.68s-5.71-.47-5.7-.91,2.57-.73,5.72-.67S26.66,36.25,26.66,36.68Z"/><path class="cls-145" d="M26.53,36.68c0,.43-2.53.73-5.64.67s-5.62-.46-5.61-.89,2.53-.73,5.64-.67S26.53,36.25,26.53,36.68Z"/><path class="cls-146" d="M26.4,36.68c0,.42-2.49.71-5.55.65s-5.53-.45-5.52-.87,2.49-.72,5.55-.66S26.4,36.26,26.4,36.68Z"/><path class="cls-147" d="M26.27,36.68c0,.41-2.45.7-5.46.64s-5.43-.44-5.43-.86,2.45-.7,5.46-.64S26.27,36.26,26.27,36.68Z"/><path class="cls-148" d="M26.14,36.68c0,.41-2.41.69-5.37.63s-5.34-.44-5.34-.85,2.41-.69,5.37-.63S26.14,36.27,26.14,36.68Z"/><path class="cls-149" d="M26,36.68c0,.4-2.37.67-5.28.62s-5.25-.43-5.24-.84,2.36-.68,5.27-.62S26,36.27,26,36.68Z"/><path class="cls-150" d="M25.88,36.67c0,.4-2.33.67-5.18.61s-5.17-.42-5.16-.81,2.32-.67,5.18-.61S25.88,36.28,25.88,36.67Z"/><path class="cls-151" d="M25.75,36.67c0,.39-2.29.66-5.09.6s-5.08-.42-5.07-.8,2.29-.66,5.09-.6S25.75,36.28,25.75,36.67Z"/><path class="cls-152" d="M25.62,36.67c0,.38-2.25.64-5,.59s-5-.41-5-.79,2.25-.64,5-.59S25.62,36.29,25.62,36.67Z"/><path class="cls-153" d="M25.49,36.67c0,.37-2.21.63-4.91.58s-4.89-.4-4.88-.78,2.2-.63,4.9-.58S25.49,36.3,25.49,36.67Z"/><path class="cls-154" d="M25.35,36.67c0,.36-2.16.62-4.81.56s-4.8-.39-4.79-.76,2.16-.62,4.81-.56S25.36,36.3,25.35,36.67Z"/><path class="cls-155" d="M25.22,36.67c0,.36-2.12.6-4.72.55s-4.71-.38-4.7-.74,2.12-.61,4.72-.56S25.23,36.31,25.22,36.67Z"/><path class="cls-156" d="M25.09,36.66c0,.36-2.07.6-4.63.55s-4.61-.38-4.61-.73,2.08-.6,4.63-.55S25.1,36.31,25.09,36.66Z"/><path class="cls-157" d="M25,36.66c0,.35-2,.59-4.54.54s-4.52-.37-4.52-.72,2-.58,4.54-.53S25,36.32,25,36.66Z"/><path class="cls-158" d="M24.83,36.66c0,.34-2,.57-4.44.53S16,36.82,16,36.48s2-.57,4.44-.52S24.84,36.32,24.83,36.66Z"/><path class="cls-159" d="M24.7,36.66c0,.33-1.95.56-4.35.51S16,36.82,16,36.49,18,35.92,20.37,36,24.71,36.33,24.7,36.66Z"/><path class="cls-160" d="M24.57,36.66c0,.32-1.91.55-4.26.5s-4.25-.35-4.25-.67S18,35.94,20.33,36,24.58,36.33,24.57,36.66Z"/><path class="cls-161" d="M24.44,36.66c0,.32-1.87.54-4.17.49s-4.16-.34-4.16-.66S18,36,20.29,36,24.45,36.34,24.44,36.66Z"/><path class="cls-162" d="M24.31,36.66c0,.31-1.83.52-4.08.48s-4.07-.34-4.07-.65S18,36,20.25,36,24.32,36.34,24.31,36.66Z"/><path class="cls-163" d="M24.18,36.65c0,.31-1.79.52-4,.47s-4-.32-4-.63S18,36,20.21,36,24.19,36.35,24.18,36.65Z"/><path class="cls-164" d="M24.05,36.65c0,.3-1.75.51-3.9.46s-3.89-.32-3.88-.61S18,36,20.17,36,24.06,36.36,24.05,36.65Z"/><path class="cls-165" d="M23.92,36.65c0,.29-1.71.49-3.81.45s-3.79-.31-3.79-.6S18,36,20.13,36.05,23.93,36.36,23.92,36.65Z"/><path class="cls-166" d="M23.79,36.65c0,.28-1.67.48-3.72.44s-3.7-.31-3.7-.59S18,36,20.09,36.06,23.8,36.37,23.79,36.65Z"/><path class="cls-167" d="M23.66,36.65c0,.27-1.63.47-3.62.43s-3.62-.3-3.61-.58,1.62-.46,3.62-.42S23.67,36.37,23.66,36.65Z"/><path class="cls-168" d="M23.53,36.65c0,.27-1.59.45-3.53.41s-3.53-.29-3.52-.55,1.58-.46,3.53-.42S23.54,36.38,23.53,36.65Z"/><path class="cls-169" d="M23.4,36.64c0,.27-1.55.45-3.44.41s-3.43-.28-3.43-.54,1.55-.45,3.44-.41S23.41,36.38,23.4,36.64Z"/><path class="cls-170" d="M23.27,36.64c0,.26-1.5.44-3.35.4s-3.34-.27-3.34-.53,1.51-.43,3.35-.4S23.27,36.39,23.27,36.64Z"/><path class="cls-171" d="M23.14,36.64c0,.25-1.46.42-3.26.39s-3.25-.27-3.25-.52,1.47-.42,3.26-.38S23.14,36.39,23.14,36.64Z"/><path class="cls-172" d="M23,36.64c0,.24-1.42.41-3.17.37s-3.16-.26-3.15-.5,1.42-.41,3.16-.37S23,36.4,23,36.64Z"/><path class="cls-173" d="M22.88,36.64c0,.23-1.38.4-3.08.36s-3.07-.25-3.06-.48,1.38-.4,3.08-.37S22.88,36.4,22.88,36.64Z"/><path class="cls-174" d="M22.75,36.64c0,.22-1.34.38-3,.35s-3-.24-3-.47,1.34-.39,3-.35S22.75,36.41,22.75,36.64Z"/><path class="cls-175" d="M22.62,36.64c0,.22-1.3.37-2.9.34s-2.88-.24-2.88-.46,1.3-.37,2.9-.34S22.62,36.42,22.62,36.64Z"/></g></g><path class="cls-179" d="M28,1a1,1,0,0,1,.16-.33,3.37,3.37,0,0,1,.33-.32A1.78,1.78,0,0,1,28.9.09,1,1,0,0,1,29.31,0h6.35a1,1,0,0,1,.71.26,3.14,3.14,0,0,1,.45.46l.62,1.41,8.1,20.92a71.2,71.2,0,0,1-10.67-.15h1.41L32.49,11.57c-.32.84-.63,1.75-1,2.73s-.64,2-1,2.95-.62,2-.95,2.93c-.26.77-.52,1.5-.77,2.19-2.95-.28-6-.77-8.83-1.25Z"/><path class="cls-180" d="M48.34,30.27l2.1,5.45a.71.71,0,0,1-.07.79,1.2,1.2,0,0,1-.94.32H42.32a1.49,1.49,0,0,1-.88-.22,1.34,1.34,0,0,1-.48-.7c-.33-.84-.65-1.69-1-2.52s-.59-1.53-.88-2.32a37.64,37.64,0,0,0,9.22-.8Z"/><path class="cls-181" d="M19.71,22.1C37.32,22,58.12,25.37,58.41,8.15c3.39,26.8-22,21.41-41.48,21.44Z"/><text class="cls-182" transform="translate(41.23 9.74) scale(0.77 1)">SHARE</text><text class="cls-183" transform="translate(51.5 36.83) scale(0.77 1)">D</text></g></g></g></svg>