<svg xmlns="http://www.w3.org/2000/svg" viewBox="0 0 258.95 187.66"><defs><style>.cls-1{fill:#1296df;}.cls-1,.cls-2,.cls-3,.cls-4,.cls-5,.cls-6,.cls-7{fill-rule:evenodd;}.cls-2{fill:#0067af;}.cls-3{fill:#b91c58;}.cls-4{fill:#890028;}.cls-5{fill:#505050;}.cls-6{fill:#cfcfcf;}.cls-7{fill:gray;}.cls-8{font-size:36.31px;font-family:Arial-Black, Arial;font-weight:800;}.cls-9{fill:#394898;}</style></defs><title>Asset 1</title><g id="Layer_2" data-name="Layer 2"><g id="Layer_1-2" data-name="Layer 1"><path class="cls-1" d="M43.16,142.39l20.72-13.12a2.93,2.93,0,0,1,4,.91l8.91,14.07a2.93,2.93,0,0,1-.91,4L55.19,161.4a2.94,2.94,0,0,1-4-.91l-8.9-14.06a2.94,2.94,0,0,1,.91-4"/><path class="cls-1" d="M92.39,172.3c-6.61-5-12-11.77-16.7-19.16-.71-1.13-1.4-2.27-2-3.42L56.15,160.79c.66,1.15,1.34,2.29,2.05,3.42A83.46,83.46,0,0,0,77,185.08c6.08,4.79,10.34,2.18,15.87-2,9.19-6.85,3.82-7.55-.48-10.83"/><path class="cls-2" d="M68,142.11l3.06,5.25-6.16,7.9,8.74-5.54,2.27-1.44a2.93,2.93,0,0,0,.91-4l-8.91-14.07a2.93,2.93,0,0,0-4-.91L43.16,142.39a2.94,2.94,0,0,0-.91,4l3.65,5.76Z"/><path class="cls-1" d="M39.72,80.86a35.78,35.78,0,0,0,31,48.31c40-22.72,75.74-26,86.73-26.48-12.07-4-27.39-18-39.69-37.39-12.14-19.18-18.17-38.7-16.87-51.36C95.48,24,77.12,54.69,39.72,80.86"/><path class="cls-2" d="M124.37,85.86,79.14,108.64c-21-.73-34.64-26.39-36.19-29.46-.5.36-1,.72-1.51,1.07a35.78,35.78,0,0,0,31,48.31c40-22.72,75.74-26,86.73-26.48-12.07-4-27.39-18-39.69-37.39-8.55-13.49-14.06-27.15-16.13-38.47,2.1,37.51,21.07,59.64,21.07,59.64"/><path class="cls-3" d="M41.08,79.49a43.73,43.73,0,0,1,2.14-7.86,49.83,49.83,0,0,0-2.14,7.86m39.59,50.59a43.34,43.34,0,0,1-8.62-1.5A55.76,55.76,0,0,0,80.67,130.08Zm-33.52-20A43.16,43.16,0,0,1,41,80c2-1.44,4-2.9,5.92-4.36-1.28-1.25-2.42-2.84-3.7-4q-5.56,3.9-11.61,7.67L2.91,96.91A43.29,43.29,0,0,0,40.54,155.7l27.9-18.22q6.15-4,12.23-7.4c-.46-1.61-1.9-3.33-2.47-5q-3.17,1.64-6.37,3.43A43.15,43.15,0,0,1,47.15,110.05Z"/><path class="cls-4" d="M78.2,125.09q-3.17,1.64-6.37,3.43A43.29,43.29,0,0,1,41,80s-4.27,18,3.08,34.32A38.75,38.75,0,0,0,61,132.54S26.85,158.17,5.72,134c.32.56.65,1.11,1,1.65a43.21,43.21,0,0,0,33.82,20l27.9-18.22q6.15-4,12.23-7.4c-.46-1.61-1.9-3.33-2.47-5"/><path class="cls-5" d="M100.84,13.94c-1.3,12.66,4.73,32.18,16.87,51.36,12.3,19.44,27.62,33.35,39.69,37.39,5.14,1.71,9.7,1.64,13.18-.56,11.65-7.38,6.87-35.83-10.67-63.54S118.69-5.62,107,1.76c-3.59,2.27-5.62,6.55-6.2,12.18"/><path class="cls-6" d="M125.64,49.6c-.23,2.18.81,5.54,2.9,8.84s4.76,5.75,6.84,6.44a2.6,2.6,0,0,0,2.27-.1c2-1.27,1.18-6.17-1.84-10.94s-7.1-7.61-9.1-6.34a2.67,2.67,0,0,0-1.07,2.1"/><path class="cls-7" d="M128.51,77.42c-.47-6.25,8-12.33,8-12.33a3.55,3.55,0,0,1-1.15-.21c-2.08-.69-4.72-3.09-6.84-6.44s-3.13-6.66-2.9-8.84a2.69,2.69,0,0,1,1-2.06,16.53,16.53,0,0,1-16.25.46,22,22,0,0,1-2.72-1.67,133.8,133.8,0,0,0,10,19,135,135,0,0,0,8.13,11.52q2.21,2.49,4.46,4.67a6.87,6.87,0,0,1-1.79-4.07"/><path class="cls-3" d="M71.38,137a10.74,10.74,0,0,0,9.79,4.8s-.65,3.68-6.88,3l-4.57-6.56Z"/><path class="cls-2" d="M78.17,156.88s15,23.36,6.26,30.7c2.77-.39,5.42-2.19,8.44-4.45,9.19-6.85,3.82-7.55-.48-10.83a67.68,67.68,0,0,1-14.22-15.42"/><text class="cls-8" transform="translate(107.68 155.07) scale(0.77 1)">AD<tspan class="cls-9" x="56.49" y="0">SHARE</tspan></text></g></g></svg>