<svg xmlns="http://www.w3.org/2000/svg" viewBox="0 0 1471.78 311.3"><defs><style>.cls-1{fill:#1f237b;}.cls-2,.cls-3{fill:#fff;}.cls-3{stroke:#f1f252;stroke-miterlimit:10;stroke-width:28px;}</style></defs><title>Asset 5</title><g id="Layer_2" data-name="Layer 2"><g id="Layer_1-2" data-name="Layer 1"><path class="cls-1" d="M362.84,267.9a7.35,7.35,0,0,1,0,9Z"/><path class="cls-2" d="M540.24,159q0,62.46.07,124.92c0,3.16-.55,4.19-4,4.14-14.83-.23-29.67-.17-44.51,0-2.65,0-3.34-.71-3.29-3.32.17-8.35.08-16.7,0-25.06,0-.76.55-1.94-.65-2.22-1.41-.32-1.4,1-1.76,1.88-8.14,20.54-24.94,32.16-47.22,32.58-14.9.28-28.95-2.62-41.26-11.59s-19.57-21.7-24.08-36c-6.67-21.12-7.28-42.85-5.82-64.73a129.2,129.2,0,0,1,8.4-38.86c13.41-34.15,45.69-45.78,76.19-38.25,16.33,4,28.37,14.07,33.87,30.68.3.91.32,2.37,1.64,2s.68-1.92.69-2.91c0-32.92.09-65.83-.07-98.74,0-3.45,1-4,4.15-4q21.87.26,43.76,0c3.06,0,3.92.65,3.91,3.83Q540.15,96.19,540.24,159Zm-51.65,37.49V171.82c0-14.62-5.37-22.52-19.24-27.06-26.63-8.72-47.5,7.09-48.26,32.24-.41,13.59-.55,27.18.14,40.76A34.07,34.07,0,0,0,428.87,238c9.49,11.61,25.47,15.38,40.8,9.73,13.73-5.06,18.91-12.43,18.92-26.94Z"/><path class="cls-2" d="M764.51,158.63c0-41.64,0-83.28-.09-124.92,0-3.53,1-4.23,4.32-4.19q21.69.27,43.38,0c3.2,0,4.15.62,4.13,4-.15,32.54-.09,65.07-.09,97.61,0,.87,0,1.75,0,2.62,0,.69-.24,1.58.83,1.76.85.14,1.34-.28,1.66-1.1.59-1.5,1.23-3,2-4.42,6.15-12,14.28-22.4,27.58-26.35,20.65-6.13,40.83-5.46,58,9.59,10.2,8.94,15,21.14,17.74,34.19a127.44,127.44,0,0,1,2.39,26.37q0,55.35.06,110.7c0,2.74-.56,3.57-3.45,3.54q-22.43-.26-44.87,0c-2.87,0-3.47-.8-3.46-3.54.09-35.16,0-70.31.07-105.47a80.5,80.5,0,0,0-1.6-18.19c-2.65-11.62-8.28-16.89-20.09-18.14-8.19-.87-16.22.16-23.47,4.34-8.86,5.12-13.48,12.68-13.44,23.26.16,37.9,0,75.79.15,113.69,0,3.34-.82,4.11-4.1,4.07-14.58-.2-29.17-.23-43.75,0-3.5.06-4-1.08-4-4.17Q764.59,221.27,764.51,158.63Z"/><path class="cls-2" d="M1119.44,199.75c0,16.73.1,30.57-.08,44.4,0,3,.89,3.79,3.73,3.61,3.73-.24,7.48,0,11.22-.1,1.78-.06,2.31.47,2.3,2.28-.07,11.85,0,23.69,0,35.53,0,1.51,0,2.61-2.1,2.55-10-.29-19.93.24-29.9-.38-16.16-1-26.16-12.52-30.27-26.25-.56-1.88.16-5.16-2.21-5.33-2.58-.17-2,3.19-2.62,5-6.54,18-20.47,26.65-38.35,29.78a77.87,77.87,0,0,1-36.6-1.94c-19.12-5.83-32.11-22-33.84-42.54-1-12.2-.14-24.11,6-35.13,6.38-11.38,16.57-18,28.29-22.56,14.61-5.71,29.94-7.11,45.47-7.16,8,0,16-.16,23.93.07,2.92.08,3.49-.85,3.42-3.55-.24-7.94.48-15.94-3.24-23.42-3.33-6.69-8.44-10.93-15.78-12.44-20-4.09-36.41,1.48-48.8,17.93-1.49,2-2.35,2.36-4.4.47-8.54-7.83-17.2-15.55-26-23.06-2.25-1.92-1.79-3-.29-4.94,16.1-21.48,37.86-31.41,64.36-32.13,16-.43,31.94.36,47.12,6,22.42,8.34,34.77,24.86,37.74,48.41C1120.53,170.72,1118.91,186.71,1119.44,199.75Zm-69.26,11.17c-5.57.09-12-.08-18.48.84-13.07,1.86-19.39,8.86-19.37,22,0,2.12.09,4.24.3,6.34.74,7.37,4.85,12.26,11.79,14.26a44,44,0,0,0,32.26-2.87c5.62-2.72,9.41-7,10.44-13.19,1.44-8.64.39-17.39.63-26.08,0-1.9-1.55-1.22-2.49-1.23C1060.53,210.88,1055.8,210.92,1050.18,210.92Z"/><path class="cls-2" d="M1412.54,209.42c-18.33,0-36.65.06-55-.07-2.74,0-3.61.55-3.48,3.43a54.43,54.43,0,0,0,2.69,16.14c5.06,14.12,16.51,21.5,33.26,22.61,18.69,1.24,33.76-5.83,46.39-18.93,2.67-2.76,3.86-2.65,6.18.41,6.86,9,14.06,17.79,21.26,26.54,1.45,1.76,1.23,2.62-.26,4.2-13.2,14-29.66,22-48.26,25.72-21.11,4.19-42.2,4.19-62.52-3.73-23.36-9.09-39-26-46.27-49.93-8.47-28-8.62-56.35,1.72-84,11.19-29.91,33.5-46.51,64.94-50.62,16.22-2.11,32.36-1.09,47.77,5.12,25.4,10.22,40.3,29.37,46.91,55.55,3.76,14.91,4,30.07,3.88,45.29,0,2.67-1.53,2.27-3.13,2.27ZM1386,179c7.22,0,14.45,0,21.67,0,3.46,0,8.24,1.18,10.06-.59,2.41-2.35.46-7.08,0-10.7-1.09-9.08-4-17.57-11.39-23.54-11.46-9.19-37.79-8.85-47.65,11-3.41,6.85-4.53,14.11-4.61,21.67,0,2.34,1.15,2.22,2.75,2.22C1366.56,179,1376.27,179,1386,179Z"/><path class="cls-2" d="M650.11,292c-22.63.29-42.63-4.78-60.21-17.94a132.83,132.83,0,0,1-15.15-13.29c-1.21-1.22-1-1.89.1-3,9.17-9.16,18.34-18.33,27.37-27.62,2-2,2.71-.36,3.75.69,8.41,8.55,17.84,15.58,29.62,18.69,11.1,2.92,22.39,3.83,33.49.07,9.75-3.31,13.71-15.27,7.91-23.21-2.8-3.83-7-5.65-11.46-6.37-9-1.46-18-2.47-27-3.75-11.51-1.63-22.68-4.38-33-10C586.82,196,579.09,179.66,579.42,159c.27-16.51,6.23-30.64,18.84-41.52,10.44-9,22.85-14,36.42-15.9,19.92-2.78,39.55-1.36,58.51,5.59,11.89,4.36,21.7,12,30.75,20.7,1.1,1.06,1,1.63,0,2.64-9,9.14-18,18.27-26.94,27.52-1.7,1.77-2.44.5-3.46-.46-8.17-7.6-17.48-13.13-28.45-15.55-8.51-1.88-17-2.21-25.47.35-6.85,2.08-10.52,6.93-10.59,13.66-.09,7.78,2.92,12.25,10.1,14.72,9.5,3.27,19.54,3.61,29.37,5.09,13.61,2.07,26.87,5.06,38.66,12.68,16,10.35,22.51,25.53,21.76,43.94-1.12,27.23-16.91,43.65-41,53.27C675.53,290.67,662.45,292.28,650.11,292Z"/><path class="cls-2" d="M1171.16,196.45c0-29.17,0-58.34-.06-87.51,0-3.23.54-4.43,4.16-4.37,14.71.24,29.42.17,44.13,0,2.74,0,3.58.58,3.53,3.46-.18,11.09-.09,22.18,0,33.28,0,1-.71,2.64.71,2.9,1.88.33,1.44-1.74,1.67-2.68,4.47-18.31,15.09-30.76,33.71-35.65,6.49-1.7,13.13-1.09,19.72-1.26,2-.05,1.79,1.21,1.79,2.47,0,14.34,0,28.67,0,43,0,2.11-.59,2.73-2.72,2.73-6.73,0-13.45.25-20.18.43a62.36,62.36,0,0,0-19.36,3.58c-9.3,3.32-14.52,9.9-15,19.72-.43,8.21-.34,16.45-.35,24.67q-.06,41.52,0,83c0,2.79-.51,3.81-3.61,3.78q-22.24-.29-44.5,0c-3,0-3.71-.79-3.7-3.72C1171.21,255,1171.16,225.75,1171.16,196.45Z"/><path class="cls-3" d="M350.22,297.3a11.11,11.11,0,0,1-9.15-4.75L226.26,114.19a15.17,15.17,0,0,0-12.69-6.64h0a15.22,15.22,0,0,0-12.69,6.69L118.69,233.06a11.13,11.13,0,0,1-18.31-12.66l82.16-118.85a37.67,37.67,0,0,1,31-16.31h0a37.7,37.7,0,0,1,31,16.31L359.35,279.83a11.12,11.12,0,0,1-9.13,17.47Z"/><path class="cls-3" d="M126,295.32H51.64a37.65,37.65,0,0,1-31-59l149-217.11A11.12,11.12,0,1,1,188.49,31c-.16.26-.34.51-.52.76L39,249a15.4,15.4,0,0,0,12.7,24.11H126a15.47,15.47,0,0,0,12.72-6.71l65.66-95.57a11.13,11.13,0,0,1,18.34,12.6L157.05,279A37.71,37.71,0,0,1,126,295.32Z"/></g></g></svg>