<svg xmlns="http://www.w3.org/2000/svg" viewBox="0 0 375.34 311.3"><defs><style>.cls-1{fill:#010674;}.cls-1,.cls-2{stroke:#010674;stroke-miterlimit:10;stroke-width:28px;}.cls-2{fill:#fff;}</style></defs><title>Asset 7</title><g id="Layer_2" data-name="Layer 2"><g id="Layer_1-2" data-name="Layer 1"><path class="cls-1" d="M350.22,297.3a11.11,11.11,0,0,1-9.15-4.75L226.26,114.19a15.17,15.17,0,0,0-12.69-6.64h0a15.22,15.22,0,0,0-12.69,6.69L118.69,233.06a11.13,11.13,0,0,1-18.31-12.66l82.16-118.85a37.67,37.67,0,0,1,31-16.31h0a37.7,37.7,0,0,1,31,16.31L359.35,279.83a11.12,11.12,0,0,1-9.13,17.47Z"/><path class="cls-2" d="M126,295.32H51.64a37.65,37.65,0,0,1-31-59l149-217.11A11.12,11.12,0,1,1,188.49,31c-.16.26-.34.51-.52.76L39,249a15.4,15.4,0,0,0,12.7,24.11H126a15.47,15.47,0,0,0,12.72-6.71l65.66-95.57a11.13,11.13,0,0,1,18.34,12.6L157.05,279A37.71,37.71,0,0,1,126,295.32Z"/></g></g></svg>