<svg xmlns="http://www.w3.org/2000/svg" viewBox="0 0 1515.78 323.75"><defs><style>.cls-1{fill:#1f237b;}.cls-2{fill:none;}.cls-3{fill:#010674;}.cls-3,.cls-4{stroke:#010674;stroke-miterlimit:10;stroke-width:28px;}.cls-4{fill:#fff;}</style></defs><title>Asset 5</title><g id="Layer_2" data-name="Layer 2"><g id="Layer_1-2" data-name="Layer 1"><path class="cls-1" d="M362.84,280.36a7.34,7.34,0,0,1,0,9Z"/><path d="M540.24,171.47q0,62.47.07,124.93c0,3.15-.55,4.18-4,4.13-14.83-.23-29.67-.16-44.51,0-2.65,0-3.34-.71-3.29-3.32.17-8.35.08-16.7,0-25.05,0-.77.55-1.95-.65-2.22-1.41-.33-1.4,1-1.76,1.88C478,292.32,461.21,304,438.93,304.37c-14.9.28-28.95-2.63-41.26-11.6s-19.57-21.69-24.08-36c-6.67-21.12-7.28-42.86-5.82-64.74a129.2,129.2,0,0,1,8.4-38.86c13.41-34.15,45.69-45.78,76.19-38.24,16.33,4,28.37,14.06,33.87,30.67.3.91.32,2.37,1.64,2s.68-1.92.69-2.91c0-32.91.09-65.83-.07-98.74,0-3.45,1-4,4.15-4q21.87.24,43.76,0c3.06,0,3.92.65,3.91,3.83Q540.15,108.64,540.24,171.47ZM488.59,209V184.27c0-14.61-5.37-22.52-19.24-27.06-26.63-8.71-47.5,7.1-48.26,32.25-.41,13.58-.55,27.18.14,40.75a34.07,34.07,0,0,0,7.64,20.27c9.49,11.61,25.47,15.38,40.8,9.73,13.73-5.06,18.91-12.43,18.92-26.94Z"/><path d="M808.51,175.08c0-41.64,0-83.28-.09-124.91,0-3.54,1-4.24,4.32-4.2q21.69.27,43.38,0c3.2,0,4.15.63,4.13,4-.15,32.54-.09,65.08-.09,97.61,0,.88,0,1.75,0,2.62,0,.69-.24,1.59.83,1.76.85.14,1.34-.28,1.66-1.1.59-1.5,1.23-3,2-4.42,6.15-12,14.28-22.39,27.58-26.34,20.65-6.14,40.83-5.46,58,9.59,10.2,8.93,15,21.14,17.74,34.18a127.5,127.5,0,0,1,2.39,26.37q0,55.35.06,110.7c0,2.74-.56,3.57-3.45,3.54q-22.43-.24-44.87,0c-2.87,0-3.47-.81-3.46-3.55.09-35.15,0-70.31.07-105.46a80.58,80.58,0,0,0-1.6-18.2c-2.65-11.62-8.28-16.89-20.09-18.14-8.19-.87-16.22.16-23.47,4.34-8.86,5.12-13.48,12.69-13.44,23.26.16,37.9,0,75.8.15,113.69,0,3.34-.82,4.11-4.1,4.07-14.58-.2-29.17-.23-43.75,0-3.5,0-4-1.08-4-4.18Q808.59,237.72,808.51,175.08Z"/><path d="M1163.44,216.21c0,16.72.1,30.56-.08,44.4,0,3,.89,3.78,3.73,3.6,3.73-.24,7.48,0,11.22-.1,1.78-.06,2.31.48,2.3,2.29-.07,11.84,0,23.68,0,35.53,0,1.51,0,2.6-2.1,2.54-10-.29-19.93.24-29.9-.37-16.16-1-26.16-12.52-30.27-26.25-.56-1.89.16-5.17-2.21-5.33-2.58-.18-2,3.19-2.62,5-6.54,18-20.47,26.66-38.35,29.78a77.87,77.87,0,0,1-36.6-1.93c-19.12-5.84-32.11-22-33.84-42.55-1-12.19-.14-24.11,6-35.12,6.38-11.38,16.57-18,28.29-22.56,14.61-5.72,29.94-7.12,45.47-7.17,8,0,16-.16,23.93.07,2.92.08,3.49-.85,3.42-3.55-.24-7.93.48-15.93-3.24-23.42-3.33-6.68-8.44-10.93-15.78-12.43-20-4.1-36.41,1.47-48.8,17.92-1.49,2-2.35,2.36-4.4.47q-12.81-11.75-26-23.06c-2.25-1.92-1.79-2.94-.29-4.93,16.1-21.49,37.86-31.42,64.36-32.14,16-.43,31.94.36,47.12,6,22.42,8.34,34.77,24.85,37.74,48.4C1164.53,187.17,1162.91,203.16,1163.44,216.21Zm-69.26,11.16c-5.57.09-12-.08-18.48.84-13.07,1.87-19.39,8.87-19.37,22,0,2.11.09,4.23.3,6.33.74,7.37,4.85,12.26,11.79,14.27a44.05,44.05,0,0,0,32.26-2.88c5.62-2.71,9.41-7,10.44-13.19,1.44-8.64.39-17.38.63-26.08,0-1.9-1.55-1.22-2.49-1.23C1104.53,227.34,1099.8,227.37,1094.18,227.37Z"/><path d="M1456.54,225.88c-18.33,0-36.65.06-55-.07-2.74,0-3.61.54-3.48,3.42a54.5,54.5,0,0,0,2.69,16.15c5.06,14.11,16.51,21.49,33.26,22.6,18.69,1.24,33.76-5.83,46.39-18.93,2.67-2.76,3.86-2.64,6.18.42,6.86,9,14.06,17.79,21.26,26.54,1.45,1.76,1.23,2.61-.26,4.19-13.2,14-29.66,22-48.26,25.72-21.11,4.2-42.2,4.19-62.52-3.72-23.36-9.1-39-26-46.27-49.94-8.47-28-8.62-56.35,1.72-84,11.19-29.91,33.5-46.51,64.94-50.61,16.22-2.12,32.36-1.1,47.77,5.11,25.4,10.23,40.3,29.38,46.91,55.56,3.76,14.9,4,30.06,3.88,45.28,0,2.68-1.53,2.27-3.13,2.27ZM1430,195.44c7.22,0,14.45,0,21.67,0,3.46,0,8.24,1.19,10.06-.59,2.41-2.35.46-7.08,0-10.7-1.09-9.08-4-17.57-11.39-23.53-11.46-9.2-37.79-8.86-47.65,11-3.41,6.85-4.53,14.12-4.61,21.68,0,2.33,1.15,2.22,2.75,2.21C1410.56,195.43,1420.27,195.44,1430,195.44Z"/><path d="M675.19,315.39c-31,.44-58.35-7-82.4-26.19a186.13,186.13,0,0,1-20.74-19.4c-1.66-1.79-1.35-2.77.14-4.35,12.54-13.38,25.1-26.76,37.46-40.33,2.71-3,3.7-.53,5.13,1,11.51,12.49,24.42,22.75,40.54,27.28,15.2,4.27,30.64,5.6,45.84.1,13.34-4.82,18.77-22.29,10.83-33.88-3.84-5.6-9.59-8.25-15.69-9.31-12.27-2.12-24.65-3.59-37-5.46-15.75-2.39-31-6.39-45.15-14.63-25.62-14.95-36.2-38.8-35.75-69,.37-24.1,8.53-44.73,25.78-60.62,14.3-13.16,31.29-20.43,49.86-23.2,27.26-4.07,54.12-2,80.09,8.15,16.26,6.36,29.68,17.55,42.08,30.23,1.51,1.54,1.4,2.38,0,3.85-12.34,13.34-24.69,26.68-36.86,40.19-2.33,2.58-3.34.72-4.74-.68-11.18-11.1-23.92-19.17-38.95-22.71-11.63-2.74-23.31-3.21-34.86.52-9.36,3-14.38,10.11-14.48,19.93-.12,11.37,4,17.9,13.81,21.5,13,4.77,26.76,5.27,40.21,7.44,18.63,3,36.78,7.38,52.9,18.51,21.88,15.1,30.82,37.27,29.79,64.15C781.58,268.25,760,292.23,727,306.28,710,313.51,692.08,315.86,675.19,315.39Z"/><path d="M1215.16,212.91c0-29.17,0-58.34-.06-87.51,0-3.23.54-4.43,4.16-4.38,14.71.24,29.42.18,44.13,0,2.74,0,3.58.57,3.53,3.45-.18,11.09-.09,22.19,0,33.28,0,1-.71,2.65.71,2.9,1.88.34,1.44-1.74,1.67-2.67,4.47-18.32,15.09-30.76,33.71-35.65,6.49-1.71,13.13-1.1,19.72-1.27,2,0,1.79,1.21,1.79,2.47,0,14.34,0,28.67,0,43,0,2.11-.59,2.73-2.72,2.74-6.73,0-13.45.24-20.18.42a62.36,62.36,0,0,0-19.36,3.58c-9.3,3.32-14.52,9.9-15,19.73-.43,8.2-.34,16.44-.35,24.67q-.06,41.5,0,83c0,2.79-.51,3.82-3.61,3.78q-22.24-.28-44.5,0c-3,0-3.71-.78-3.7-3.72C1215.21,271.5,1215.16,242.2,1215.16,212.91Z"/><rect class="cls-2" x="362.32" width="1122.28" height="309.75"/><path class="cls-3" d="M350.22,309.75a11.11,11.11,0,0,1-9.15-4.75L226.26,126.64A15.22,15.22,0,0,0,213.57,120h0a15.22,15.22,0,0,0-12.69,6.69L118.69,245.51a11.13,11.13,0,0,1-18.31-12.66L182.54,114a37.67,37.67,0,0,1,31-16.31h0a37.7,37.7,0,0,1,31,16.31L359.35,292.28a11.12,11.12,0,0,1-9.13,17.47Z"/><path class="cls-4" d="M126,307.77H51.64a37.65,37.65,0,0,1-31-59l149-217.11a11.12,11.12,0,1,1,18.83,11.83c-.16.26-.34.51-.52.76L39,261.41a15.4,15.4,0,0,0,12.7,24.11H126a15.42,15.42,0,0,0,12.72-6.71l65.66-95.57a11.13,11.13,0,0,1,18.34,12.6L157.05,291.4A37.69,37.69,0,0,1,126,307.77Z"/></g></g></svg>