<svg xmlns="http://www.w3.org/2000/svg" viewBox="0 0 139.3 115.46"><defs><style>.cls-1{fill:#fff;stroke:#fff;stroke-miterlimit:10;stroke-width:10px;}</style></defs><title>Asset 2</title><g id="Layer_2" data-name="Layer 2"><g id="Layer_1-2" data-name="Layer 1"><g id="Layer_1-2-2" data-name="Layer 1-2"><path class="cls-1" d="M130.16,110.46a4.16,4.16,0,0,1-3.41-1.77L84,42.29a5.66,5.66,0,0,0-4.72-2.47h0a5.68,5.68,0,0,0-4.72,2.49L44,86.54a4.14,4.14,0,1,1-6.82-4.71L67.74,37.59a14,14,0,0,1,11.54-6.07h0a14,14,0,0,1,11.54,6.07L133.56,104a4.14,4.14,0,0,1-3.4,6.51Z"/><path class="cls-1" d="M46.68,109.72H19a14,14,0,0,1-11.54-22L62.94,6.94a4.14,4.14,0,1,1,7,4.4,2.75,2.75,0,0,1-.19.28L14.29,92.46a5.74,5.74,0,0,0,1.49,8,5.67,5.67,0,0,0,3.24,1H46.68a5.76,5.76,0,0,0,4.74-2.5L75.86,63.36a4.14,4.14,0,0,1,6.82,4.69L58.25,103.63A14,14,0,0,1,46.68,109.72Z"/></g></g></g></svg>